<?xml version="1.0" encoding="UTF-8"?>
<svg xmlns="http://www.w3.org/2000/svg" width="640" height="320" viewBox="0 0 640 320">
<title>0363100012167644 NL.IMBAG.Pand.0363100012167644-0:lod22:wall:14</title>
<rect width="640" height="320" fill="#fff" stroke="#ccc" />
<line x1="300" y1="0" x2="300" y2="320" stroke="#eee" />

    <text x="4" y="12" font-size="10" fill="#333">plan (XY, RD)</text>
    <circle cx="35.0" cy="110.4" r="1.5" fill="#1f78b4" /><circle cx="35.0" cy="110.4" r="1.5" fill="#1f78b4" /><circle cx="59.8" cy="124.5" r="1.5" fill="#1f78b4" /><circle cx="59.8" cy="124.5" r="1.5" fill="#1f78b4" /><circle cx="65.3" cy="57.4" r="1.5" fill="#1f78b4" /><circle cx="65.3" cy="57.4" r="1.5" fill="#1f78b4" /><circle cx="35.0" cy="110.4" r="1.5" fill="#1f78b4" /><circle cx="35.0" cy="110.4" r="1.5" fill="#1f78b4" /><circle cx="162.7" cy="110.8" r="1.5" fill="#1f78b4" /><circle cx="162.7" cy="110.8" r="1.5" fill="#1f78b4" /><circle cx="161.7" cy="112.5" r="1.5" fill="#1f78b4" /><circle cx="161.7" cy="112.5" r="1.5" fill="#1f78b4" /><circle cx="183.6" cy="122.7" r="1.5" fill="#1f78b4" /><circle cx="183.6" cy="122.7" r="1.5" fill="#1f78b4" /><circle cx="162.7" cy="110.8" r="1.5" fill="#1f78b4" /><circle cx="162.7" cy="110.8" r="1.5" fill="#1f78b4" /><circle cx="136.3" cy="98.0" r="1.5" fill="#1f78b4" /><circle cx="136.3" cy="98.0" r="1.5" fill="#1f78b4" /><circle cx="123.3" cy="90.5" r="1.5" fill="#1f78b4" /><circle cx="123.3" cy="90.5" r="1.5" fill="#1f78b4" /><circle cx="95.2" cy="74.4" r="1.5" fill="#1f78b4" /><circle cx="95.2" cy="74.4" r="1.5" fill="#1f78b4" /><circle cx="95.2" cy="74.4" r="1.5" fill="#1f78b4" /><circle cx="65.3" cy="57.4" r="1.5" fill="#1f78b4" /><circle cx="65.3" cy="57.4" r="1.5" fill="#1f78b4" /><circle cx="59.8" cy="124.5" r="1.5" fill="#1f78b4" /><circle cx="59.8" cy="124.5" r="1.5" fill="#1f78b4" /><circle cx="92.9" cy="143.4" r="1.5" fill="#1f78b4" /><circle cx="92.9" cy="143.4" r="1.5" fill="#1f78b4" /><circle cx="123.3" cy="90.5" r="1.5" fill="#1f78b4" /><circle cx="123.3" cy="90.5" r="1.5" fill="#1f78b4" /><circle cx="95.2" cy="74.4" r="1.5" fill="#1f78b4" /><circle cx="95.2" cy="74.4" r="1.5" fill="#1f78b4" /><circle cx="264.4" cy="241.4" r="1.5" fill="#1f78b4" /><circle cx="264.4" cy="241.4" r="1.5" fill="#1f78b4" /><circle cx="280.5" cy="213.6" r="1.5" fill="#1f78b4" /><circle cx="280.5" cy="213.6" r="1.5" fill="#1f78b4" /><circle cx="106.1" cy="151.0" r="1.5" fill="#1f78b4" /><circle cx="106.1" cy="151.0" r="1.5" fill="#1f78b4" /><circle cx="116.3" cy="156.8" r="1.5" fill="#1f78b4" /><circle cx="116.3" cy="156.8" r="1.5" fill="#1f78b4" /><circle cx="116.3" cy="156.8" r="1.5" fill="#1f78b4" /><circle cx="146.9" cy="104.0" r="1.5" fill="#1f78b4" /><circle cx="146.9" cy="104.0" r="1.5" fill="#1f78b4" /><circle cx="146.9" cy="104.0" r="1.5" fill="#1f78b4" /><circle cx="136.3" cy="98.0" r="1.5" fill="#1f78b4" /><circle cx="136.3" cy="98.0" r="1.5" fill="#1f78b4" /><circle cx="161.7" cy="112.5" r="1.5" fill="#1f78b4" /><circle cx="161.7" cy="112.5" r="1.5" fill="#1f78b4" /><circle cx="146.9" cy="104.0" r="1.5" fill="#1f78b4" /><circle cx="146.9" cy="104.0" r="1.5" fill="#1f78b4" /><circle cx="296.0" cy="186.9" r="1.5" fill="#1f78b4" /><circle cx="296.0" cy="186.9" r="1.5" fill="#1f78b4" /><circle cx="280.0" cy="177.8" r="1.5" fill="#1f78b4" /><circle cx="280.0" cy="177.8" r="1.5" fill="#1f78b4" /><circle cx="280.0" cy="177.8" r="1.5" fill="#1f78b4" /><circle cx="280.5" cy="213.6" r="1.5" fill="#1f78b4" /><circle cx="280.5" cy="213.6" r="1.5" fill="#1f78b4" /><circle cx="280.5" cy="213.6" r="1.5" fill="#1f78b4" /><circle cx="296.0" cy="186.9" r="1.5" fill="#1f78b4" /><circle cx="296.0" cy="186.9" r="1.5" fill="#1f78b4" /><circle cx="280.0" cy="177.8" r="1.5" fill="#1f78b4" /><circle cx="280.0" cy="177.8" r="1.5" fill="#1f78b4" /><circle cx="183.6" cy="122.7" r="1.5" fill="#1f78b4" /><circle cx="183.6" cy="122.7" r="1.5" fill="#1f78b4" /><circle cx="183.6" cy="122.7" r="1.5" fill="#1f78b4" /><circle cx="246.7" cy="231.3" r="1.5" fill="#1f78b4" /><circle cx="246.7" cy="231.3" r="1.5" fill="#1f78b4" /><circle cx="246.7" cy="231.3" r="1.5" fill="#1f78b4" /><circle cx="264.4" cy="241.4" r="1.5" fill="#1f78b4" /><circle cx="264.4" cy="241.4" r="1.5" fill="#1f78b4" /><circle cx="148.1" cy="174.9" r="1.5" fill="#1f78b4" /><circle cx="148.1" cy="174.9" r="1.5" fill="#1f78b4" /><circle cx="148.1" cy="174.9" r="1.5" fill="#1f78b4" /><circle cx="246.7" cy="231.3" r="1.5" fill="#1f78b4" /><circle cx="246.7" cy="231.3" r="1.5" fill="#1f78b4" /><circle cx="116.3" cy="156.8" r="1.5" fill="#1f78b4" /><circle cx="116.3" cy="156.8" r="1.5" fill="#1f78b4" /><circle cx="148.1" cy="174.9" r="1.5" fill="#1f78b4" /><circle cx="148.1" cy="174.9" r="1.5" fill="#1f78b4" /><circle cx="92.9" cy="143.4" r="1.5" fill="#1f78b4" /><circle cx="92.9" cy="143.4" r="1.5" fill="#1f78b4" /><circle cx="106.1" cy="151.0" r="1.5" fill="#1f78b4" /><circle cx="106.1" cy="151.0" r="1.5" fill="#1f78b4" />
    <circle cx="15.1" cy="145.3" r="1.5" fill="#e31a1c" /><circle cx="15.1" cy="145.3" r="1.5" fill="#e31a1c" /><circle cx="4.0" cy="164.6" r="1.5" fill="#e31a1c" /><circle cx="4.0" cy="164.6" r="1.5" fill="#e31a1c" /><circle cx="15.9" cy="145.4" r="1.5" fill="#e31a1c" /><circle cx="15.9" cy="145.4" r="1.5" fill="#e31a1c" /><circle cx="15.1" cy="145.3" r="1.5" fill="#e31a1c" /><circle cx="15.1" cy="145.3" r="1.5" fill="#e31a1c" /><circle cx="19.7" cy="137.1" r="1.5" fill="#e31a1c" /><circle cx="19.7" cy="137.1" r="1.5" fill="#e31a1c" /><circle cx="15.9" cy="145.4" r="1.5" fill="#e31a1c" /><circle cx="15.9" cy="145.4" r="1.5" fill="#e31a1c" /><circle cx="15.9" cy="145.4" r="1.5" fill="#e31a1c" /><circle cx="29.2" cy="123.1" r="1.5" fill="#e31a1c" /><circle cx="29.2" cy="123.1" r="1.5" fill="#e31a1c" /><circle cx="29.2" cy="123.1" r="1.5" fill="#e31a1c" /><circle cx="24.6" cy="127.6" r="1.5" fill="#e31a1c" /><circle cx="24.6" cy="127.6" r="1.5" fill="#e31a1c" /><circle cx="24.6" cy="127.6" r="1.5" fill="#e31a1c" /><circle cx="24.6" cy="127.6" r="1.5" fill="#e31a1c" /><circle cx="25.0" cy="127.8" r="1.5" fill="#e31a1c" /><circle cx="25.0" cy="127.8" r="1.5" fill="#e31a1c" /><circle cx="225.6" cy="219.2" r="1.5" fill="#e31a1c" /><circle cx="225.6" cy="219.2" r="1.5" fill="#e31a1c" /><circle cx="154.9" cy="178.8" r="1.5" fill="#e31a1c" /><circle cx="154.9" cy="178.8" r="1.5" fill="#e31a1c" /><circle cx="154.9" cy="178.8" r="1.5" fill="#e31a1c" /><circle cx="128.4" cy="163.7" r="1.5" fill="#e31a1c" /><circle cx="128.4" cy="163.7" r="1.5" fill="#e31a1c" /><circle cx="128.4" cy="163.7" r="1.5" fill="#e31a1c" /><circle cx="96.1" cy="145.2" r="1.5" fill="#e31a1c" /><circle cx="96.1" cy="145.2" r="1.5" fill="#e31a1c" /><circle cx="66.7" cy="128.4" r="1.5" fill="#e31a1c" /><circle cx="66.7" cy="128.4" r="1.5" fill="#e31a1c" /><circle cx="36.8" cy="111.4" r="1.5" fill="#e31a1c" /><circle cx="36.8" cy="111.4" r="1.5" fill="#e31a1c" /><circle cx="36.8" cy="111.4" r="1.5" fill="#e31a1c" /><circle cx="36.8" cy="111.4" r="1.5" fill="#e31a1c" /><circle cx="36.4" cy="112.0" r="1.5" fill="#e31a1c" /><circle cx="36.4" cy="112.0" r="1.5" fill="#e31a1c" /><circle cx="49.8" cy="190.8" r="1.5" fill="#e31a1c" /><circle cx="49.8" cy="190.8" r="1.5" fill="#e31a1c" /><circle cx="64.6" cy="199.3" r="1.5" fill="#e31a1c" /><circle cx="64.6" cy="199.3" r="1.5" fill="#e31a1c" /><circle cx="25.0" cy="127.8" r="1.5" fill="#e31a1c" /><circle cx="25.0" cy="127.8" r="1.5" fill="#e31a1c" /><circle cx="19.7" cy="137.1" r="1.5" fill="#e31a1c" /><circle cx="19.7" cy="137.1" r="1.5" fill="#e31a1c" /><circle cx="64.6" cy="199.3" r="1.5" fill="#e31a1c" /><circle cx="64.6" cy="199.3" r="1.5" fill="#e31a1c" /><circle cx="92.1" cy="215.0" r="1.5" fill="#e31a1c" /><circle cx="92.1" cy="215.0" r="1.5" fill="#e31a1c" /><circle cx="154.9" cy="178.8" r="1.5" fill="#e31a1c" /><circle cx="154.9" cy="178.8" r="1.5" fill="#e31a1c" /><circle cx="128.4" cy="163.7" r="1.5" fill="#e31a1c" /><circle cx="128.4" cy="163.7" r="1.5" fill="#e31a1c" /><circle cx="264.4" cy="241.4" r="1.5" fill="#e31a1c" /><circle cx="264.4" cy="241.4" r="1.5" fill="#e31a1c" /><circle cx="225.6" cy="219.2" r="1.5" fill="#e31a1c" /><circle cx="225.6" cy="219.2" r="1.5" fill="#e31a1c" /><circle cx="225.6" cy="219.2" r="1.5" fill="#e31a1c" /><circle cx="94.8" cy="216.4" r="1.5" fill="#e31a1c" /><circle cx="94.8" cy="216.4" r="1.5" fill="#e31a1c" /><circle cx="119.4" cy="230.6" r="1.5" fill="#e31a1c" /><circle cx="119.4" cy="230.6" r="1.5" fill="#e31a1c" /><circle cx="119.4" cy="230.6" r="1.5" fill="#e31a1c" /><circle cx="92.1" cy="215.0" r="1.5" fill="#e31a1c" /><circle cx="92.1" cy="215.0" r="1.5" fill="#e31a1c" /><circle cx="94.8" cy="216.4" r="1.5" fill="#e31a1c" /><circle cx="94.8" cy="216.4" r="1.5" fill="#e31a1c" /><circle cx="94.8" cy="216.4" r="1.5" fill="#e31a1c" /><circle cx="81.4" cy="136.9" r="1.5" fill="#e31a1c" /><circle cx="81.4" cy="136.9" r="1.5" fill="#e31a1c" /><circle cx="81.4" cy="136.9" r="1.5" fill="#e31a1c" /><circle cx="66.7" cy="128.4" r="1.5" fill="#e31a1c" /><circle cx="66.7" cy="128.4" r="1.5" fill="#e31a1c" /><circle cx="66.7" cy="128.4" r="1.5" fill="#e31a1c" /><circle cx="96.1" cy="145.2" r="1.5" fill="#e31a1c" /><circle cx="96.1" cy="145.2" r="1.5" fill="#e31a1c" /><circle cx="81.4" cy="136.9" r="1.5" fill="#e31a1c" /><circle cx="81.4" cy="136.9" r="1.5" fill="#e31a1c" /><circle cx="253.5" cy="260.8" r="1.5" fill="#e31a1c" /><circle cx="253.5" cy="260.8" r="1.5" fill="#e31a1c" /><circle cx="259.4" cy="250.3" r="1.5" fill="#e31a1c" /><circle cx="259.4" cy="250.3" r="1.5" fill="#e31a1c" /><circle cx="246.1" cy="274.1" r="1.5" fill="#e31a1c" /><circle cx="246.1" cy="274.1" r="1.5" fill="#e31a1c" /><circle cx="253.5" cy="260.8" r="1.5" fill="#e31a1c" /><circle cx="253.5" cy="260.8" r="1.5" fill="#e31a1c" /><circle cx="233.9" cy="296.0" r="1.5" fill="#e31a1c" /><circle cx="233.9" cy="296.0" r="1.5" fill="#e31a1c" /><circle cx="246.1" cy="274.1" r="1.5" fill="#e31a1c" /><circle cx="246.1" cy="274.1" r="1.5" fill="#e31a1c" /><circle cx="259.4" cy="250.3" r="1.5" fill="#e31a1c" /><circle cx="259.4" cy="250.3" r="1.5" fill="#e31a1c" /><circle cx="264.4" cy="241.4" r="1.5" fill="#e31a1c" /><circle cx="264.4" cy="241.4" r="1.5" fill="#e31a1c" /><circle cx="4.0" cy="164.6" r="1.5" fill="#e31a1c" /><circle cx="4.0" cy="164.6" r="1.5" fill="#e31a1c" /><circle cx="35.2" cy="182.5" r="1.5" fill="#e31a1c" /><circle cx="35.2" cy="182.5" r="1.5" fill="#e31a1c" /><circle cx="22.9" cy="104.4" r="1.5" fill="#e31a1c" /><circle cx="22.9" cy="104.4" r="1.5" fill="#e31a1c" /><circle cx="29.2" cy="123.1" r="1.5" fill="#e31a1c" /><circle cx="29.2" cy="123.1" r="1.5" fill="#e31a1c" /><circle cx="36.4" cy="112.0" r="1.5" fill="#e31a1c" /><circle cx="36.4" cy="112.0" r="1.5" fill="#e31a1c" /><circle cx="22.9" cy="104.4" r="1.5" fill="#e31a1c" /><circle cx="22.9" cy="104.4" r="1.5" fill="#e31a1c" /><circle cx="119.4" cy="230.6" r="1.5" fill="#e31a1c" /><circle cx="119.4" cy="230.6" r="1.5" fill="#e31a1c" /><circle cx="233.9" cy="296.0" r="1.5" fill="#e31a1c" /><circle cx="233.9" cy="296.0" r="1.5" fill="#e31a1c" /><circle cx="35.2" cy="182.5" r="1.5" fill="#e31a1c" /><circle cx="35.2" cy="182.5" r="1.5" fill="#e31a1c" /><circle cx="49.8" cy="190.8" r="1.5" fill="#e31a1c" /><circle cx="49.8" cy="190.8" r="1.5" fill="#e31a1c" />
    <line x1="95.2" y1="74.4" x2="65.3" y2="57.4" stroke="#ff7f00" stroke-width="3" />
    <circle cx="160.7" cy="142.7" r="3" fill="#1f78b4" />
    <text x="160.7" y="136.7" font-size="8" fill="#1f78b4">7644</text>
    <circle cx="100.0" cy="178.3" r="3" fill="#e31a1c" />
    <text x="100.0" y="172.3" font-size="8" fill="#e31a1c">7646 (neighbour)</text>
  

    <text x="320" y="12" font-size="10" fill="#333">elevation (NAP)</text>
    
    <line x1="320" y1="82.8" x2="630" y2="82.8" stroke="#1f78b4" stroke-width="2" />
    <text x="626" y="78.8" font-size="9" fill="#1f78b4" text-anchor="end">own roof max 20.85 m</text>
  
    
    <line x1="320" y1="82.8" x2="630" y2="82.8" stroke="#ff7f00" stroke-width="2" />
    <text x="626" y="96.8" font-size="9" fill="#ff7f00" text-anchor="end">wall top 20.85 m</text>
  
    
    <line x1="320" y1="90.8" x2="630" y2="90.8" stroke="#e31a1c" stroke-width="2" />
    <text x="626" y="104.8" font-size="9" fill="#e31a1c" text-anchor="end">neighbour's own roof max 20.72 m</text>
  
    
    <line x1="320" y1="237.2" x2="630" y2="237.2" stroke="#33a02c" stroke-width="2" />
    <text x="626" y="233.2" font-size="9" fill="#33a02c" text-anchor="end">expected (bouwlagen=5) 18.38 m</text>
  
  
</svg>
