# measured facades, massing and 3DBAG roofs in RD/NAP (EPSG:7415)
g NL_IMBAG_Pand_0363100012070059_0_lod22_wall_2
v 119316.462 485126.972 0.434
v 119316.516 485127.267 0.434
v 119316.516 485127.267 16.787
v 119316.462 485126.972 16.787
v 119316.561 485127.513 0.434
v 119316.580 485127.620 0.434
v 119316.580 485127.620 16.787
v 119316.561 485127.513 16.787
v 119316.516 485127.267 0.434
v 119316.561 485127.513 0.434
v 119316.561 485127.513 1.184
v 119316.516 485127.267 1.184
v 119316.516 485127.267 2.734
v 119316.561 485127.513 2.734
v 119316.561 485127.513 16.787
v 119316.516 485127.267 16.787
f 1 2 3 4
f 5 6 7 8
f 9 10 11 12
f 13 14 15 16
g NL_IMBAG_Pand_0363100012070059_0_lod22_wall_2__openings
v 119316.319 485127.302 1.184
v 119316.364 485127.548 1.184
v 119316.364 485127.548 2.734
v 119316.319 485127.302 2.734
v 119316.516 485127.267 1.184
v 119316.561 485127.513 1.184
v 119316.561 485127.513 2.734
v 119316.516 485127.267 2.734
f 17 18 19 20
f 21 17 20 24
f 22 23 19 18
f 21 22 18 17
f 24 20 19 23
g NL_IMBAG_Pand_0363100012070059_0_lod22_wall_2__roofline
v 119316.496 485126.991 15.953
v 119316.505 485127.040 15.733
v 119316.505 485127.040 15.973
v 119316.496 485126.991 16.193
v 119316.505 485127.040 15.733
v 119316.514 485127.089 15.953
v 119316.514 485127.089 16.193
v 119316.505 485127.040 15.973
v 119316.514 485127.089 15.953
v 119316.541 485127.237 15.505
v 119316.541 485127.237 15.745
v 119316.514 485127.089 16.193
v 119316.541 485127.237 15.505
v 119316.550 485127.286 14.913
v 119316.550 485127.286 15.153
v 119316.541 485127.237 15.745
v 119316.550 485127.286 14.913
v 119316.612 485127.630 14.913
v 119316.612 485127.630 15.153
v 119316.550 485127.286 15.153
f 25 26 27 28
f 29 30 31 32
f 33 34 35 36
f 37 38 39 40
f 41 42 43 44
g NL_IMBAG_Pand_0363100012070059_0_lod22_wall_3
v 119316.580 485127.620 0.434
v 119316.679 485128.272 0.434
v 119316.679 485128.272 16.615
v 119316.580 485127.620 16.615
f 45 46 47 48
g NL_IMBAG_Pand_0363100012070059_0_lod22_wall_3__openings
g NL_IMBAG_Pand_0363100012070059_0_lod22_wall_3__roofline
v 119316.613 485127.640 14.859
v 119316.621 485127.689 13.532
v 119316.621 485127.689 13.772
v 119316.613 485127.640 15.099
v 119316.621 485127.689 13.532
v 119316.628 485127.739 14.833
v 119316.628 485127.739 15.073
v 119316.621 485127.689 13.772
v 119316.628 485127.739 14.833
v 119316.651 485127.887 14.833
v 119316.651 485127.887 15.073
v 119316.628 485127.739 15.073
v 119316.651 485127.887 14.833
v 119316.658 485127.936 12.208
v 119316.658 485127.936 12.448
v 119316.651 485127.887 15.073
v 119316.658 485127.936 12.208
v 119316.673 485128.035 12.208
v 119316.673 485128.035 12.448
v 119316.658 485127.936 12.448
v 119316.673 485128.035 12.208
v 119316.681 485128.085 14.833
v 119316.681 485128.085 15.073
v 119316.673 485128.035 12.448
v 119316.681 485128.085 14.833
v 119316.696 485128.183 14.899
v 119316.696 485128.183 15.139
v 119316.681 485128.085 15.073
v 119316.696 485128.183 14.899
v 119316.711 485128.282 12.208
v 119316.711 485128.282 12.448
v 119316.696 485128.183 15.139
f 49 50 51 52
f 53 54 55 56
f 57 58 59 60
f 61 62 63 64
f 65 66 67 68
f 69 70 71 72
f 73 74 75 76
f 77 78 79 80
g NL_IMBAG_Pand_0363100012070059_0_lod22_wall_4
v 119316.864 485130.524 0.434
v 119316.874 485130.897 0.434
v 119316.874 485130.897 16.965
v 119316.864 485130.524 16.965
f 81 82 83 84
g NL_IMBAG_Pand_0363100012070059_0_lod22_wall_4__openings
g NL_IMBAG_Pand_0363100012070059_0_lod22_wall_4__roofline
v 119316.895 485130.548 13.985
v 119316.897 485130.648 12.207
v 119316.897 485130.648 12.447
v 119316.895 485130.548 14.225
v 119316.897 485130.648 12.207
v 119316.900 485130.748 13.096
v 119316.900 485130.748 13.336
v 119316.897 485130.648 12.447
v 119316.900 485130.748 13.096
v 119316.901 485130.798 12.207
v 119316.901 485130.798 12.447
v 119316.900 485130.748 13.336
v 119316.901 485130.798 12.207
v 119316.903 485130.848 13.073
v 119316.903 485130.848 13.313
v 119316.901 485130.798 12.447
v 119316.903 485130.848 13.073
v 119316.904 485130.898 12.162
v 119316.904 485130.898 12.402
v 119316.903 485130.848 13.313
f 85 86 87 88
f 89 90 91 92
f 93 94 95 96
f 97 98 99 100
f 101 102 103 104
g NL_IMBAG_Pand_0363100012070059_0_lod22_wall_6
v 119316.679 485128.272 0.434
v 119316.759 485128.925 0.434
v 119316.759 485128.925 16.487
v 119316.679 485128.272 16.487
f 105 106 107 108
g NL_IMBAG_Pand_0363100012070059_0_lod22_wall_6__openings
g NL_IMBAG_Pand_0363100012070059_0_lod22_wall_6__roofline
v 119316.712 485128.293 15.383
v 119316.748 485128.590 14.813
v 119316.748 485128.590 15.053
v 119316.712 485128.293 15.623
v 119316.748 485128.590 14.813
v 119316.767 485128.739 14.950
v 119316.767 485128.739 15.190
v 119316.748 485128.590 15.053
v 119316.767 485128.739 14.950
v 119316.773 485128.789 13.726
v 119316.773 485128.789 13.966
v 119316.767 485128.739 15.190
v 119316.773 485128.789 13.726
v 119316.791 485128.938 16.009
v 119316.791 485128.938 16.249
v 119316.773 485128.789 13.966
f 109 110 111 112
f 113 114 115 116
f 117 118 119 120
f 121 122 123 124
g NL_IMBAG_Pand_0363100012070059_0_lod22_wall_8
v 119316.759 485128.925 0.434
v 119316.855 485130.236 0.434
v 119316.855 485130.236 16.401
v 119316.759 485128.925 16.401
f 125 126 127 128
g NL_IMBAG_Pand_0363100012070059_0_lod22_wall_8__openings
g NL_IMBAG_Pand_0363100012070059_0_lod22_wall_8__roofline
v 119316.791 485128.947 13.150
v 119316.794 485128.997 13.716
v 119316.794 485128.997 13.956
v 119316.791 485128.947 13.390
v 119316.794 485128.997 13.716
v 119316.798 485129.047 13.150
v 119316.798 485129.047 13.390
v 119316.794 485128.997 13.956
v 119316.798 485129.047 13.150
v 119316.802 485129.097 13.653
v 119316.802 485129.097 13.893
v 119316.798 485129.047 13.390
v 119316.802 485129.097 13.653
v 119316.809 485129.197 12.900
v 119316.809 485129.197 13.140
v 119316.802 485129.097 13.893
v 119316.809 485129.197 12.900
v 119316.835 485129.546 12.900
v 119316.835 485129.546 13.140
v 119316.809 485129.197 13.140
v 119316.835 485129.546 12.900
v 119316.838 485129.596 13.290
v 119316.838 485129.596 13.530
v 119316.835 485129.546 13.140
v 119316.838 485129.596 13.290
v 119316.845 485129.695 13.290
v 119316.845 485129.695 13.530
v 119316.838 485129.596 13.530
v 119316.845 485129.695 13.290
v 119316.853 485129.795 12.251
v 119316.853 485129.795 12.491
v 119316.845 485129.695 13.530
v 119316.853 485129.795 12.251
v 119316.860 485129.895 13.290
v 119316.860 485129.895 13.530
v 119316.853 485129.795 12.491
v 119316.860 485129.895 13.290
v 119316.864 485129.945 12.307
v 119316.864 485129.945 12.547
v 119316.860 485129.895 13.530
v 119316.864 485129.945 12.307
v 119316.871 485130.044 12.307
v 119316.871 485130.044 12.547
v 119316.864 485129.945 12.547
v 119316.871 485130.044 12.307
v 119316.886 485130.244 13.772
v 119316.886 485130.244 14.012
v 119316.871 485130.044 12.547
f 129 130 131 132
f 133 134 135 136
f 137 138 139 140
f 141 142 143 144
f 145 146 147 148
f 149 150 151 152
f 153 154 155 156
f 157 158 159 160
f 161 162 163 164
f 165 166 167 168
f 169 170 171 172
f 173 174 175 176
g NL_IMBAG_Pand_0363100012070059_0_lod22_wall_9
v 119316.873 485131.554 0.434
v 119316.808 485132.870 0.434
v 119316.808 485132.870 16.742
v 119316.873 485131.554 16.742
f 177 178 179 180
g NL_IMBAG_Pand_0363100012070059_0_lod22_wall_9__openings
g NL_IMBAG_Pand_0363100012070059_0_lod22_wall_9__roofline
v 119316.902 485131.580 12.002
v 119316.892 485131.780 12.237
v 119316.892 485131.780 12.477
v 119316.902 485131.580 12.242
v 119316.892 485131.780 12.237
v 119316.882 485131.979 12.203
v 119316.882 485131.979 12.443
v 119316.892 485131.780 12.477
v 119316.882 485131.979 12.203
v 119316.880 485132.029 12.910
v 119316.880 485132.029 13.150
v 119316.882 485131.979 12.443
v 119316.880 485132.029 12.910
v 119316.867 485132.279 12.910
v 119316.867 485132.279 13.150
v 119316.880 485132.029 13.150
v 119316.867 485132.279 12.910
v 119316.865 485132.329 12.203
v 119316.865 485132.329 12.443
v 119316.867 485132.279 13.150
v 119316.865 485132.329 12.203
v 119316.860 485132.429 12.910
v 119316.860 485132.429 13.150
v 119316.865 485132.329 12.443
v 119316.860 485132.429 12.910
v 119316.857 485132.479 12.180
v 119316.857 485132.479 12.420
v 119316.860 485132.429 13.150
v 119316.857 485132.479 12.180
v 119316.838 485132.878 12.162
v 119316.838 485132.878 12.402
v 119316.857 485132.479 12.420
f 181 182 183 184
f 185 186 187 188
f 189 190 191 192
f 193 194 195 196
f 197 198 199 200
f 201 202 203 204
f 205 206 207 208
f 209 210 211 212
g NL_IMBAG_Pand_0363100012070059_0_lod22_wall_10
v 119316.808 485132.870 0.434
v 119316.752 485133.462 0.434
v 119316.752 485133.462 16.588
v 119316.808 485132.870 16.588
f 213 214 215 216
g NL_IMBAG_Pand_0363100012070059_0_lod22_wall_10__openings
g NL_IMBAG_Pand_0363100012070059_0_lod22_wall_10__roofline
v 119316.836 485132.897 12.127
v 119316.831 485132.947 12.351
v 119316.831 485132.947 12.591
v 119316.836 485132.897 12.367
v 119316.831 485132.947 12.351
v 119316.812 485133.146 11.875
v 119316.812 485133.146 12.115
v 119316.831 485132.947 12.591
v 119316.812 485133.146 11.875
v 119316.784 485133.445 11.875
v 119316.784 485133.445 12.115
v 119316.812 485133.146 12.115
f 217 218 219 220
f 221 222 223 224
f 225 226 227 228
g NL_IMBAG_Pand_0363100012070059_0_lod22_wall_11
v 119316.746 485133.524 0.434
v 119316.665 485134.178 0.434
v 119316.665 485134.178 17.381
v 119316.746 485133.524 17.381
f 229 230 231 232
g NL_IMBAG_Pand_0363100012070059_0_lod22_wall_11__openings
g NL_IMBAG_Pand_0363100012070059_0_lod22_wall_11__roofline
v 119316.773 485133.553 13.760
v 119316.742 485133.801 12.691
v 119316.742 485133.801 12.931
v 119316.773 485133.553 14.000
v 119316.742 485133.801 12.691
v 119316.736 485133.851 11.537
v 119316.736 485133.851 11.777
v 119316.742 485133.801 12.931
v 119316.736 485133.851 11.537
v 119316.717 485134.000 11.270
v 119316.717 485134.000 11.510
v 119316.736 485133.851 11.777
v 119316.717 485134.000 11.270
v 119316.699 485134.148 11.914
v 119316.699 485134.148 12.154
v 119316.717 485134.000 11.510
v 119316.699 485134.148 11.914
v 119316.693 485134.198 11.270
v 119316.693 485134.198 11.510
v 119316.699 485134.148 12.154
f 233 234 235 236
f 237 238 239 240
f 241 242 243 244
f 245 246 247 248
f 249 250 251 252
g NL_IMBAG_Pand_0363100012070059_0_lod22_wall_38
v 119315.709 485138.488 0.434
v 119315.189 485139.861 0.434
v 119315.189 485139.861 19.335
v 119315.709 485138.488 19.335
f 253 254 255 256
g NL_IMBAG_Pand_0363100012070059_0_lod22_wall_38__openings
g NL_IMBAG_Pand_0363100012070059_0_lod22_wall_38__roofline
v 119315.728 485138.522 14.312
v 119315.693 485138.615 11.508
v 119315.693 485138.615 11.748
v 119315.728 485138.522 14.552
v 119315.693 485138.615 11.508
v 119315.604 485138.849 11.482
v 119315.604 485138.849 11.722
v 119315.693 485138.615 11.748
v 119315.604 485138.849 11.482
v 119315.587 485138.896 11.361
v 119315.587 485138.896 11.601
v 119315.604 485138.849 11.722
v 119315.587 485138.896 11.361
v 119315.516 485139.083 11.482
v 119315.516 485139.083 11.722
v 119315.587 485138.896 11.601
v 119315.516 485139.083 11.482
v 119315.463 485139.223 11.361
v 119315.463 485139.223 11.601
v 119315.516 485139.083 11.722
v 119315.463 485139.223 11.361
v 119315.445 485139.270 11.847
v 119315.445 485139.270 12.087
v 119315.463 485139.223 11.601
v 119315.445 485139.270 11.847
v 119315.392 485139.410 11.847
v 119315.392 485139.410 12.087
v 119315.445 485139.270 12.087
v 119315.392 485139.410 11.847
v 119315.374 485139.457 11.553
v 119315.374 485139.457 11.793
v 119315.392 485139.410 12.087
v 119315.374 485139.457 11.553
v 119315.339 485139.550 11.553
v 119315.339 485139.550 11.793
v 119315.374 485139.457 11.793
v 119315.339 485139.550 11.553
v 119315.303 485139.644 17.206
v 119315.303 485139.644 17.446
v 119315.339 485139.550 11.793
v 119315.303 485139.644 17.206
v 119315.250 485139.784 17.591
v 119315.250 485139.784 17.831
v 119315.303 485139.644 17.446
v 119315.250 485139.784 17.591
v 119315.232 485139.831 17.398
v 119315.232 485139.831 17.638
v 119315.250 485139.784 17.831
v 119315.232 485139.831 17.398
v 119315.215 485139.878 17.591
v 119315.215 485139.878 17.831
v 119315.232 485139.831 17.638
f 257 258 259 260
f 261 262 263 264
f 265 266 267 268
f 269 270 271 272
f 273 274 275 276
f 277 278 279 280
f 281 282 283 284
f 285 286 287 288
f 289 290 291 292
f 293 294 295 296
f 297 298 299 300
f 301 302 303 304
f 305 306 307 308
g NL_IMBAG_Pand_0363100012143972_0_lod22_wall_10
v 119344.275 485148.468 0.341
v 119344.497 485148.135 0.341
v 119344.497 485148.135 18.252
v 119344.275 485148.468 18.252
v 119344.775 485147.719 0.341
v 119344.865 485147.584 0.341
v 119344.865 485147.584 18.252
v 119344.775 485147.719 18.252
v 119344.497 485148.135 0.341
v 119344.775 485147.719 0.341
v 119344.775 485147.719 3.191
v 119344.497 485148.135 3.191
v 119344.497 485148.135 3.991
v 119344.775 485147.719 3.991
v 119344.775 485147.719 18.252
v 119344.497 485148.135 18.252
f 309 310 311 312
f 313 314 315 316
f 317 318 319 320
f 321 322 323 324
g NL_IMBAG_Pand_0363100012143972_0_lod22_wall_10__openings
v 119344.663 485148.246 3.191
v 119344.941 485147.830 3.191
v 119344.941 485147.830 3.991
v 119344.663 485148.246 3.991
v 119344.497 485148.135 3.191
v 119344.775 485147.719 3.191
v 119344.775 485147.719 3.991
v 119344.497 485148.135 3.991
f 325 326 327 328
f 329 325 328 332
f 330 331 327 326
f 329 330 326 325
f 332 328 327 331
g NL_IMBAG_Pand_0363100012143972_0_lod22_wall_10__roofline
v 119344.264 485148.430 14.357
v 119344.292 485148.388 9.405
v 119344.292 485148.388 9.645
v 119344.264 485148.430 14.597
v 119344.292 485148.388 9.405
v 119344.319 485148.347 14.357
v 119344.319 485148.347 14.597
v 119344.292 485148.388 9.645
v 119344.319 485148.347 14.357
v 119344.347 485148.305 9.405
v 119344.347 485148.305 9.645
v 119344.319 485148.347 14.597
v 119344.347 485148.305 9.405
v 119344.375 485148.264 14.357
v 119344.375 485148.264 14.597
v 119344.347 485148.305 9.645
v 119344.375 485148.264 14.357
v 119344.403 485148.222 4.453
v 119344.403 485148.222 4.693
v 119344.375 485148.264 14.597
v 119344.403 485148.222 4.453
v 119344.486 485148.097 4.453
v 119344.486 485148.097 4.693
v 119344.403 485148.222 4.693
v 119344.486 485148.097 4.453
v 119344.597 485147.931 13.399
v 119344.597 485147.931 13.639
v 119344.486 485148.097 4.693
v 119344.597 485147.931 13.399
v 119344.653 485147.848 13.399
v 119344.653 485147.848 13.639
v 119344.597 485147.931 13.639
v 119344.653 485147.848 13.399
v 119344.708 485147.765 12.467
v 119344.708 485147.765 12.707
v 119344.653 485147.848 13.639
v 119344.708 485147.765 12.467
v 119344.819 485147.598 14.379
v 119344.819 485147.598 14.619
v 119344.708 485147.765 12.707
v 119344.819 485147.598 14.379
v 119344.847 485147.557 12.467
v 119344.847 485147.557 12.707
v 119344.819 485147.598 14.619
f 333 334 335 336
f 337 338 339 340
f 341 342 343 344
f 345 346 347 348
f 349 350 351 352
f 353 354 355 356
f 357 358 359 360
f 361 362 363 364
f 365 366 367 368
f 369 370 371 372
f 373 374 375 376
g NL_IMBAG_Pand_0363100012143972_0_lod22_wall_11
v 119344.865 485147.584 0.341
v 119345.496 485146.731 0.341
v 119345.496 485146.731 18.252
v 119344.865 485147.584 18.252
f 377 378 379 380
g NL_IMBAG_Pand_0363100012143972_0_lod22_wall_11__openings
g NL_IMBAG_Pand_0363100012143972_0_lod22_wall_11__roofline
v 119344.856 485147.546 12.391
v 119344.915 485147.465 11.570
v 119344.915 485147.465 11.810
v 119344.856 485147.546 12.631
v 119344.915 485147.465 11.570
v 119345.034 485147.304 11.356
v 119345.034 485147.304 11.596
v 119344.915 485147.465 11.810
v 119345.034 485147.304 11.356
v 119345.064 485147.264 9.162
v 119345.064 485147.264 9.402
v 119345.034 485147.304 11.596
v 119345.064 485147.264 9.162
v 119345.153 485147.144 8.653
v 119345.153 485147.144 8.893
v 119345.064 485147.264 9.402
v 119345.153 485147.144 8.653
v 119345.272 485146.983 8.653
v 119345.272 485146.983 8.893
v 119345.153 485147.144 8.893
v 119345.272 485146.983 8.653
v 119345.302 485146.943 9.006
v 119345.302 485146.943 9.246
v 119345.272 485146.983 8.893
v 119345.302 485146.943 9.006
v 119345.421 485146.782 9.269
v 119345.421 485146.782 9.509
v 119345.302 485146.943 9.246
v 119345.421 485146.782 9.269
v 119345.480 485146.701 10.720
v 119345.480 485146.701 10.960
v 119345.421 485146.782 9.509
f 381 382 383 384
f 385 386 387 388
f 389 390 391 392
f 393 394 395 396
f 397 398 399 400
f 401 402 403 404
f 405 406 407 408
f 409 410 411 412
g NL_IMBAG_Pand_0363100012143972_0_lod22_wall_12
v 119345.496 485146.731 0.341
v 119345.816 485146.328 0.341
v 119345.816 485146.328 18.252
v 119345.496 485146.731 18.252
f 413 414 415 416
g NL_IMBAG_Pand_0363100012143972_0_lod22_wall_12__openings
g NL_IMBAG_Pand_0363100012143972_0_lod22_wall_12__roofline
v 119345.488 485146.692 10.541
v 119345.550 485146.614 9.704
v 119345.550 485146.614 9.944
v 119345.488 485146.692 10.781
v 119345.550 485146.614 9.704
v 119345.612 485146.536 10.541
v 119345.612 485146.536 10.781
v 119345.550 485146.614 9.944
v 119345.612 485146.536 10.541
v 119345.644 485146.496 9.704
v 119345.644 485146.496 9.944
v 119345.612 485146.536 10.781
v 119345.644 485146.496 9.704
v 119345.799 485146.301 11.415
v 119345.799 485146.301 11.655
v 119345.644 485146.496 9.944
f 417 418 419 420
f 421 422 423 424
f 425 426 427 428
f 429 430 431 432
g NL_IMBAG_Pand_0363100012143972_0_lod22_wall_13
v 119345.816 485146.328 0.341
v 119346.043 485146.077 0.341
v 119346.043 485146.077 18.251
v 119345.816 485146.328 18.251
f 433 434 435 436
g NL_IMBAG_Pand_0363100012143972_0_lod22_wall_13__openings
g NL_IMBAG_Pand_0363100012143972_0_lod22_wall_13__roofline
v 119345.811 485146.289 10.600
v 119346.012 485146.066 10.654
v 119346.012 485146.066 10.894
v 119345.811 485146.289 10.840
f 437 438 439 440
g NL_IMBAG_Pand_0363100012143972_0_lod22_wall_20
v 119346.936 485145.084 0.341
v 119347.308 485144.671 0.341
v 119347.308 485144.671 4.891
v 119346.936 485145.084 4.891
v 119346.936 485145.084 5.491
v 119347.308 485144.671 5.491
v 119347.308 485144.671 18.247
v 119346.936 485145.084 18.247
f 441 442 443 444
f 445 446 447 448
g NL_IMBAG_Pand_0363100012143972_0_lod22_wall_20__openings
v 119347.085 485145.218 4.891
v 119347.486 485144.773 4.891
v 119347.486 485144.773 5.491
v 119347.085 485145.218 5.491
v 119346.936 485145.084 4.891
v 119347.338 485144.639 4.891
v 119347.338 485144.639 5.491
v 119346.936 485145.084 5.491
f 449 450 451 452
f 453 449 452 456
f 454 455 451 450
f 453 454 450 449
f 456 452 451 455
g NL_IMBAG_Pand_0363100012143972_0_lod22_wall_20__roofline
v 119346.930 485145.046 11.796
v 119346.997 485144.972 13.604
v 119346.997 485144.972 13.844
v 119346.930 485145.046 12.036
v 119346.997 485144.972 13.604
v 119347.098 485144.860 11.796
v 119347.098 485144.860 12.036
v 119346.997 485144.972 13.844
v 119347.098 485144.860 11.796
v 119347.165 485144.786 13.168
v 119347.165 485144.786 13.408
v 119347.098 485144.860 12.036
v 119347.165 485144.786 13.168
v 119347.198 485144.749 12.482
v 119347.198 485144.749 12.722
v 119347.165 485144.786 13.408
v 119347.198 485144.749 12.482
v 119347.232 485144.711 13.168
v 119347.232 485144.711 13.408
v 119347.198 485144.749 12.722
v 119347.232 485144.711 13.168
v 119347.299 485144.637 11.050
v 119347.299 485144.637 11.290
v 119347.232 485144.711 13.408
f 457 458 459 460
f 461 462 463 464
f 465 466 467 468
f 469 470 471 472
f 473 474 475 476
f 477 478 479 480
g NL_IMBAG_Pand_0363100012143972_0_lod22_wall_22
v 119347.308 485144.671 0.341
v 119347.382 485144.604 0.341
v 119347.382 485144.604 18.246
v 119347.308 485144.671 18.246
v 119347.827 485144.202 0.341
v 119348.146 485143.914 0.341
v 119348.146 485143.914 18.246
v 119347.827 485144.202 18.246
v 119347.382 485144.604 0.341
v 119347.827 485144.202 0.341
v 119347.827 485144.202 1.841
v 119347.382 485144.604 1.841
v 119347.382 485144.604 2.341
v 119347.827 485144.202 2.341
v 119347.827 485144.202 3.241
v 119347.382 485144.604 3.241
v 119347.382 485144.604 4.141
v 119347.827 485144.202 4.141
v 119347.827 485144.202 4.841
v 119347.382 485144.604 4.841
v 119347.382 485144.604 5.591
v 119347.827 485144.202 5.591
v 119347.827 485144.202 5.691
v 119347.382 485144.604 5.691
v 119347.382 485144.604 7.391
v 119347.827 485144.202 7.391
v 119347.827 485144.202 18.246
v 119347.382 485144.604 18.246
f 481 482 483 484
f 485 486 487 488
f 489 490 491 492
f 493 494 495 496
f 497 498 499 500
f 501 502 503 504
f 505 506 507 508
g NL_IMBAG_Pand_0363100012143972_0_lod22_wall_22__openings
v 119347.516 485144.753 1.841
v 119347.961 485144.350 1.841
v 119347.961 485144.350 2.341
v 119347.516 485144.753 2.341
v 119347.382 485144.604 1.841
v 119347.827 485144.202 1.841
v 119347.827 485144.202 2.341
v 119347.382 485144.604 2.341
v 119347.516 485144.753 3.241
v 119347.961 485144.350 3.241
v 119347.961 485144.350 4.141
v 119347.516 485144.753 4.141
v 119347.382 485144.604 3.241
v 119347.827 485144.202 3.241
v 119347.827 485144.202 4.141
v 119347.382 485144.604 4.141
v 119347.516 485144.753 4.841
v 119347.961 485144.350 4.841
v 119347.961 485144.350 5.591
v 119347.516 485144.753 5.591
v 119347.382 485144.604 4.841
v 119347.827 485144.202 4.841
v 119347.827 485144.202 5.591
v 119347.382 485144.604 5.591
v 119347.516 485144.753 5.691
v 119347.961 485144.350 5.691
v 119347.961 485144.350 7.391
v 119347.516 485144.753 7.391
v 119347.382 485144.604 5.691
v 119347.827 485144.202 5.691
v 119347.827 485144.202 7.391
v 119347.382 485144.604 7.391
f 509 510 511 512
f 513 509 512 516
f 514 515 511 510
f 513 514 510 509
f 516 512 511 515
f 517 518 519 520
f 521 517 520 524
f 522 523 519 518
f 521 522 518 517
f 524 520 519 523
f 525 526 527 528
f 529 525 528 532
f 530 531 527 526
f 529 530 526 525
f 532 528 527 531
f 533 534 535 536
f 537 533 536 540
f 538 539 535 534
f 537 538 534 533
f 540 536 535 539
g NL_IMBAG_Pand_0363100012143972_0_lod22_wall_22__roofline
v 119347.306 485144.632 18.256
v 119347.381 485144.565 18.170
v 119347.381 485144.565 18.410
v 119347.306 485144.632 18.496
v 119347.381 485144.565 18.170
v 119347.492 485144.465 11.252
v 119347.492 485144.465 11.492
v 119347.381 485144.565 18.410
v 119347.492 485144.465 11.252
v 119347.603 485144.364 11.252
v 119347.603 485144.364 11.492
v 119347.492 485144.465 11.492
v 119347.603 485144.364 11.252
v 119347.677 485144.297 17.015
v 119347.677 485144.297 17.255
v 119347.603 485144.364 11.492
v 119347.677 485144.297 17.015
v 119347.826 485144.163 17.015
v 119347.826 485144.163 17.255
v 119347.677 485144.297 17.255
v 119347.826 485144.163 17.015
v 119348.048 485143.962 15.319
v 119348.048 485143.962 15.559
v 119347.826 485144.163 17.255
v 119348.048 485143.962 15.319
v 119348.122 485143.895 10.561
v 119348.122 485143.895 10.801
v 119348.048 485143.962 15.559
f 541 542 543 544
f 545 546 547 548
f 549 550 551 552
f 553 554 555 556
f 557 558 559 560
f 561 562 563 564
f 565 566 567 568
g NL_IMBAG_Pand_0363100012143972_0_lod22_wall_23
v 119348.146 485143.914 0.341
v 119348.962 485143.175 0.341
v 119348.962 485143.175 14.487
v 119348.146 485143.914 14.487
f 569 570 571 572
g NL_IMBAG_Pand_0363100012143972_0_lod22_wall_23__openings
g NL_IMBAG_Pand_0363100012143972_0_lod22_wall_23__roofline
v 119348.144 485143.874 12.766
v 119348.219 485143.807 11.887
v 119348.219 485143.807 12.127
v 119348.144 485143.874 13.006
v 119348.219 485143.807 11.887
v 119348.293 485143.740 12.766
v 119348.293 485143.740 13.006
v 119348.219 485143.807 12.127
v 119348.293 485143.740 12.766
v 119348.404 485143.640 9.756
v 119348.404 485143.640 9.996
v 119348.293 485143.740 13.006
v 119348.404 485143.640 9.756
v 119348.441 485143.606 10.088
v 119348.441 485143.606 10.328
v 119348.404 485143.640 9.996
v 119348.441 485143.606 10.088
v 119348.478 485143.572 9.756
v 119348.478 485143.572 9.996
v 119348.441 485143.606 10.328
v 119348.478 485143.572 9.756
v 119348.552 485143.505 10.570
v 119348.552 485143.505 10.810
v 119348.478 485143.572 9.996
v 119348.552 485143.505 10.570
v 119348.663 485143.405 10.644
v 119348.663 485143.405 10.884
v 119348.552 485143.505 10.810
v 119348.663 485143.405 10.644
v 119348.811 485143.270 11.508
v 119348.811 485143.270 11.748
v 119348.663 485143.405 10.884
v 119348.811 485143.270 11.508
v 119348.849 485143.237 12.515
v 119348.849 485143.237 12.755
v 119348.811 485143.270 11.748
v 119348.849 485143.237 12.515
v 119348.886 485143.203 11.419
v 119348.886 485143.203 11.659
v 119348.849 485143.237 12.755
v 119348.886 485143.203 11.419
v 119348.923 485143.170 11.186
v 119348.923 485143.170 11.426
v 119348.886 485143.203 11.659
v 119348.923 485143.170 11.186
v 119348.960 485143.136 11.419
v 119348.960 485143.136 11.659
v 119348.923 485143.170 11.426
f 573 574 575 576
f 577 578 579 580
f 581 582 583 584
f 585 586 587 588
f 589 590 591 592
f 593 594 595 596
f 597 598 599 600
f 601 602 603 604
f 605 606 607 608
f 609 610 611 612
f 613 614 615 616
f 617 618 619 620
g NL_IMBAG_Pand_0363100012164118_0_lod22_wall_3
v 119311.900 485147.649 0.247
v 119311.519 485148.045 0.247
v 119311.519 485148.045 14.517
v 119311.900 485147.649 14.517
v 119309.889 485149.738 0.247
v 119309.683 485149.952 0.247
v 119309.683 485149.952 14.517
v 119309.889 485149.738 14.517
v 119311.519 485148.045 0.247
v 119309.889 485149.738 0.247
v 119309.889 485149.738 1.047
v 119311.519 485148.045 1.047
v 119311.519 485148.045 1.297
v 119309.889 485149.738 1.297
v 119309.889 485149.738 14.517
v 119311.519 485148.045 14.517
f 621 622 623 624
f 625 626 627 628
f 629 630 631 632
f 633 634 635 636
g NL_IMBAG_Pand_0363100012164118_0_lod22_wall_3__openings
v 119311.374 485147.906 1.047
v 119309.745 485149.599 1.047
v 119309.745 485149.599 1.297
v 119311.374 485147.906 1.297
v 119311.519 485148.045 1.047
v 119309.889 485149.738 1.047
v 119309.889 485149.738 1.297
v 119311.519 485148.045 1.297
f 637 638 639 640
f 641 637 640 644
f 642 643 639 638
f 641 642 638 637
f 644 640 639 643
g NL_IMBAG_Pand_0363100012164118_0_lod22_wall_3__roofline
v 119311.904 485147.687 12.066
v 119311.800 485147.795 11.834
v 119311.800 485147.795 12.074
v 119311.904 485147.687 12.306
v 119311.800 485147.795 11.834
v 119311.245 485148.372 12.064
v 119311.245 485148.372 12.304
v 119311.800 485147.795 12.074
v 119311.245 485148.372 12.064
v 119311.107 485148.516 13.472
v 119311.107 485148.516 13.712
v 119311.245 485148.372 12.304
v 119311.107 485148.516 13.472
v 119311.037 485148.588 13.574
v 119311.037 485148.588 13.814
v 119311.107 485148.516 13.712
v 119311.037 485148.588 13.574
v 119310.933 485148.696 13.472
v 119310.933 485148.696 13.712
v 119311.037 485148.588 13.814
v 119310.933 485148.696 13.472
v 119310.864 485148.768 13.671
v 119310.864 485148.768 13.911
v 119310.933 485148.696 13.712
v 119310.864 485148.768 13.671
v 119310.587 485149.056 13.738
v 119310.587 485149.056 13.978
v 119310.864 485148.768 13.911
v 119310.587 485149.056 13.738
v 119310.483 485149.164 13.566
v 119310.483 485149.164 13.806
v 119310.587 485149.056 13.978
v 119310.483 485149.164 13.566
v 119310.205 485149.452 13.566
v 119310.205 485149.452 13.806
v 119310.483 485149.164 13.806
v 119310.205 485149.452 13.566
v 119310.101 485149.560 11.920
v 119310.101 485149.560 12.160
v 119310.205 485149.452 13.806
v 119310.101 485149.560 11.920
v 119309.720 485149.957 11.326
v 119309.720 485149.957 11.566
v 119310.101 485149.560 12.160
f 645 646 647 648
f 649 650 651 652
f 653 654 655 656
f 657 658 659 660
f 661 662 663 664
f 665 666 667 668
f 669 670 671 672
f 673 674 675 676
f 677 678 679 680
f 681 682 683 684
f 685 686 687 688
g NL_IMBAG_Pand_0363100012164118_0_lod22_wall_15
v 119315.189 485139.861 0.247
v 119314.972 485140.366 0.247
v 119314.972 485140.366 14.593
v 119315.189 485139.861 14.593
v 119314.874 485140.596 0.247
v 119313.710 485143.307 0.247
v 119313.710 485143.307 14.593
v 119314.874 485140.596 14.593
v 119313.572 485143.628 0.247
v 119313.375 485144.088 0.247
v 119313.375 485144.088 14.593
v 119313.572 485143.628 14.593
v 119313.710 485143.307 0.247
v 119313.572 485143.628 0.247
v 119313.572 485143.628 4.747
v 119313.710 485143.307 4.747
v 119313.710 485143.307 5.922
v 119313.572 485143.628 5.922
v 119313.572 485143.628 14.593
v 119313.710 485143.307 14.593
v 119314.972 485140.366 0.247
v 119314.874 485140.596 0.247
v 119314.874 485140.596 4.747
v 119314.972 485140.366 4.747
v 119314.972 485140.366 5.922
v 119314.874 485140.596 5.922
v 119314.874 485140.596 14.593
v 119314.972 485140.366 14.593
v 119312.961 485145.053 0.247
v 119312.665 485145.742 0.247
v 119312.665 485145.742 14.593
v 119312.961 485145.053 14.593
v 119313.375 485144.088 0.247
v 119312.961 485145.053 0.247
v 119312.961 485145.053 2.547
v 119313.375 485144.088 2.547
v 119313.375 485144.088 2.897
v 119312.961 485145.053 2.897
v 119312.961 485145.053 14.593
v 119313.375 485144.088 14.593
v 119312.015 485147.258 0.247
v 119311.863 485147.611 0.247
v 119311.863 485147.611 14.593
v 119312.015 485147.258 14.593
v 119312.665 485145.742 0.247
v 119312.015 485147.258 0.247
v 119312.015 485147.258 1.047
v 119312.665 485145.742 1.047
v 119312.665 485145.742 1.297
v 119312.015 485147.258 1.297
v 119312.015 485147.258 14.593
v 119312.665 485145.742 14.593
f 689 690 691 692
f 693 694 695 696
f 697 698 699 700
f 701 702 703 704
f 705 706 707 708
f 709 710 711 712
f 713 714 715 716
f 717 718 719 720
f 721 722 723 724
f 725 726 727 728
f 729 730 731 732
f 733 734 735 736
f 737 738 739 740
g NL_IMBAG_Pand_0363100012164118_0_lod22_wall_15__openings
v 119312.481 485145.663 1.047
v 119311.831 485147.179 1.047
v 119311.831 485147.179 1.297
v 119312.481 485145.663 1.297
v 119312.665 485145.742 1.047
v 119312.015 485147.258 1.047
v 119312.015 485147.258 1.297
v 119312.665 485145.742 1.297
v 119313.191 485144.009 2.547
v 119312.777 485144.974 2.547
v 119312.777 485144.974 2.897
v 119313.191 485144.009 2.897
v 119313.375 485144.088 2.547
v 119312.961 485145.053 2.547
v 119312.961 485145.053 2.897
v 119313.375 485144.088 2.897
v 119314.788 485140.287 4.747
v 119314.690 485140.517 4.747
v 119314.690 485140.517 5.922
v 119314.788 485140.287 5.922
v 119314.972 485140.366 4.747
v 119314.874 485140.596 4.747
v 119314.874 485140.596 5.922
v 119314.972 485140.366 5.922
v 119313.526 485143.228 4.747
v 119313.388 485143.549 4.747
v 119313.388 485143.549 5.922
v 119313.526 485143.228 5.922
v 119313.710 485143.307 4.747
v 119313.572 485143.628 4.747
v 119313.572 485143.628 5.922
v 119313.710 485143.307 5.922
f 741 742 743 744
f 745 741 744 748
f 746 747 743 742
f 745 746 742 741
f 748 744 743 747
f 749 750 751 752
f 753 749 752 756
f 754 755 751 750
f 753 754 750 749
f 756 752 751 755
f 757 758 759 760
f 761 757 760 764
f 762 763 759 758
f 761 762 758 757
f 764 760 759 763
f 765 766 767 768
f 769 765 768 772
f 770 771 767 766
f 769 770 766 765
f 772 768 767 771
g NL_IMBAG_Pand_0363100012164118_0_lod22_wall_15__roofline
v 119315.207 485139.895 10.274
v 119315.187 485139.941 9.372
v 119315.187 485139.941 9.612
v 119315.207 485139.895 10.514
v 119315.187 485139.941 9.372
v 119315.167 485139.987 10.274
v 119315.167 485139.987 10.514
v 119315.187 485139.941 9.612
v 119315.167 485139.987 10.274
v 119315.148 485140.033 9.372
v 119315.148 485140.033 9.612
v 119315.167 485139.987 10.514
v 119315.148 485140.033 9.372
v 119315.128 485140.079 10.274
v 119315.128 485140.079 10.514
v 119315.148 485140.033 9.612
v 119315.128 485140.079 10.274
v 119315.108 485140.125 8.471
v 119315.108 485140.125 8.711
v 119315.128 485140.079 10.514
v 119315.108 485140.125 8.471
v 119315.069 485140.217 8.471
v 119315.069 485140.217 8.711
v 119315.108 485140.125 8.711
v 119315.069 485140.217 8.471
v 119315.049 485140.263 11.869
v 119315.049 485140.263 12.109
v 119315.069 485140.217 8.711
v 119315.049 485140.263 11.869
v 119315.010 485140.355 11.869
v 119315.010 485140.355 12.109
v 119315.049 485140.263 12.109
v 119315.010 485140.355 11.869
v 119314.990 485140.401 10.911
v 119314.990 485140.401 11.151
v 119315.010 485140.355 12.109
v 119314.990 485140.401 10.911
v 119314.872 485140.676 10.911
v 119314.872 485140.676 11.151
v 119314.990 485140.401 11.151
v 119314.872 485140.676 10.911
v 119314.852 485140.722 8.197
v 119314.852 485140.722 8.437
v 119314.872 485140.676 11.151
v 119314.852 485140.722 8.197
v 119314.832 485140.768 10.961
v 119314.832 485140.768 11.201
v 119314.852 485140.722 8.437
v 119314.832 485140.768 10.961
v 119314.674 485141.136 10.914
v 119314.674 485141.136 11.154
v 119314.832 485140.768 11.201
v 119314.674 485141.136 10.914
v 119314.655 485141.182 10.084
v 119314.655 485141.182 10.324
v 119314.674 485141.136 11.154
v 119314.655 485141.182 10.084
v 119314.635 485141.228 10.914
v 119314.635 485141.228 11.154
v 119314.655 485141.182 10.324
v 119314.635 485141.228 10.914
v 119314.595 485141.320 10.762
v 119314.595 485141.320 11.002
v 119314.635 485141.228 11.154
v 119314.595 485141.320 10.762
v 119314.556 485141.412 10.918
v 119314.556 485141.412 11.158
v 119314.595 485141.320 11.002
v 119314.556 485141.412 10.918
v 119314.536 485141.458 10.762
v 119314.536 485141.458 11.002
v 119314.556 485141.412 11.158
v 119314.536 485141.458 10.762
v 119314.497 485141.549 10.920
v 119314.497 485141.549 11.160
v 119314.536 485141.458 11.002
v 119314.497 485141.549 10.920
v 119314.418 485141.733 13.965
v 119314.418 485141.733 14.205
v 119314.497 485141.549 11.160
v 119314.418 485141.733 13.965
v 119314.339 485141.917 13.965
v 119314.339 485141.917 14.205
v 119314.418 485141.733 14.205
v 119314.339 485141.917 13.965
v 119314.221 485142.193 12.720
v 119314.221 485142.193 12.960
v 119314.339 485141.917 14.205
v 119314.221 485142.193 12.720
v 119314.162 485142.331 10.672
v 119314.162 485142.331 10.912
v 119314.221 485142.193 12.960
v 119314.162 485142.331 10.672
v 119314.004 485142.698 10.672
v 119314.004 485142.698 10.912
v 119314.162 485142.331 10.912
v 119314.004 485142.698 10.672
v 119313.945 485142.836 10.339
v 119313.945 485142.836 10.579
v 119314.004 485142.698 10.912
v 119313.945 485142.836 10.339
v 119313.905 485142.928 10.513
v 119313.905 485142.928 10.753
v 119313.945 485142.836 10.579
v 119313.905 485142.928 10.513
v 119313.827 485143.112 10.418
v 119313.827 485143.112 10.658
v 119313.905 485142.928 10.753
v 119313.827 485143.112 10.418
v 119313.767 485143.250 10.913
v 119313.767 485143.250 11.153
v 119313.827 485143.112 10.658
v 119313.767 485143.250 10.913
v 119313.748 485143.295 10.673
v 119313.748 485143.295 10.913
v 119313.767 485143.250 11.153
v 119313.748 485143.295 10.673
v 119313.728 485143.341 10.913
v 119313.728 485143.341 11.153
v 119313.748 485143.295 10.913
v 119313.728 485143.341 10.913
v 119313.590 485143.663 10.972
v 119313.590 485143.663 11.212
v 119313.728 485143.341 11.153
v 119313.590 485143.663 10.972
v 119313.570 485143.709 11.664
v 119313.570 485143.709 11.904
v 119313.590 485143.663 11.212
v 119313.570 485143.709 11.664
v 119313.511 485143.847 11.999
v 119313.511 485143.847 12.239
v 119313.570 485143.709 11.904
v 119313.511 485143.847 11.999
v 119313.432 485144.031 11.999
v 119313.432 485144.031 12.239
v 119313.511 485143.847 12.239
v 119313.432 485144.031 11.999
v 119313.373 485144.169 11.711
v 119313.373 485144.169 11.951
v 119313.432 485144.031 12.239
v 119313.373 485144.169 11.711
v 119313.176 485144.628 11.887
v 119313.176 485144.628 12.127
v 119313.373 485144.169 11.951
v 119313.176 485144.628 11.887
v 119313.117 485144.766 10.962
v 119313.117 485144.766 11.202
v 119313.176 485144.628 12.127
v 119313.117 485144.766 10.962
v 119313.077 485144.858 11.922
v 119313.077 485144.858 12.162
v 119313.117 485144.766 11.202
v 119313.077 485144.858 11.922
v 119313.058 485144.904 11.584
v 119313.058 485144.904 11.824
v 119313.077 485144.858 12.162
v 119313.058 485144.904 11.584
v 119312.998 485145.042 11.584
v 119312.998 485145.042 11.824
v 119313.058 485144.904 11.824
v 119312.998 485145.042 11.584
v 119312.979 485145.087 11.909
v 119312.979 485145.087 12.149
v 119312.998 485145.042 11.824
v 119312.979 485145.087 11.909
v 119312.959 485145.133 11.584
v 119312.959 485145.133 11.824
v 119312.979 485145.087 12.149
v 119312.959 485145.133 11.584
v 119312.900 485145.271 11.573
v 119312.900 485145.271 11.813
v 119312.959 485145.133 11.824
v 119312.900 485145.271 11.573
v 119312.880 485145.317 11.100
v 119312.880 485145.317 11.340
v 119312.900 485145.271 11.813
v 119312.880 485145.317 11.100
v 119312.860 485145.363 11.573
v 119312.860 485145.363 11.813
v 119312.880 485145.317 11.340
v 119312.860 485145.363 11.573
v 119312.821 485145.455 11.573
v 119312.821 485145.455 11.813
v 119312.860 485145.363 11.813
v 119312.821 485145.455 11.573
v 119312.801 485145.501 11.224
v 119312.801 485145.501 11.464
v 119312.821 485145.455 11.813
v 119312.801 485145.501 11.224
v 119312.782 485145.547 11.573
v 119312.782 485145.547 11.813
v 119312.801 485145.501 11.464
v 119312.782 485145.547 11.573
v 119312.742 485145.639 11.224
v 119312.742 485145.639 11.464
v 119312.782 485145.547 11.813
v 119312.742 485145.639 11.224
v 119312.683 485145.777 11.224
v 119312.683 485145.777 11.464
v 119312.742 485145.639 11.464
v 119312.683 485145.777 11.224
v 119312.624 485145.915 11.806
v 119312.624 485145.915 12.046
v 119312.683 485145.777 11.464
v 119312.624 485145.915 11.806
v 119312.446 485146.328 11.824
v 119312.446 485146.328 12.064
v 119312.624 485145.915 12.046
v 119312.446 485146.328 11.824
v 119312.269 485146.742 11.666
v 119312.269 485146.742 11.906
v 119312.446 485146.328 12.064
v 119312.269 485146.742 11.666
v 119312.210 485146.879 11.931
v 119312.210 485146.879 12.171
v 119312.269 485146.742 11.906
v 119312.210 485146.879 11.931
v 119312.072 485147.201 11.922
v 119312.072 485147.201 12.162
v 119312.210 485146.879 12.171
v 119312.072 485147.201 11.922
v 119312.032 485147.293 11.335
v 119312.032 485147.293 11.575
v 119312.072 485147.201 12.162
v 119312.032 485147.293 11.335
v 119311.973 485147.431 11.335
v 119311.973 485147.431 11.575
v 119312.032 485147.293 11.575
v 119311.973 485147.431 11.335
v 119311.953 485147.477 11.617
v 119311.953 485147.477 11.857
v 119311.973 485147.431 11.575
v 119311.953 485147.477 11.617
v 119311.894 485147.615 10.865
v 119311.894 485147.615 11.105
v 119311.953 485147.477 11.857
f 773 774 775 776
f 777 778 779 780
f 781 782 783 784
f 785 786 787 788
f 789 790 791 792
f 793 794 795 796
f 797 798 799 800
f 801 802 803 804
f 805 806 807 808
f 809 810 811 812
f 813 814 815 816
f 817 818 819 820
f 821 822 823 824
f 825 826 827 828
f 829 830 831 832
f 833 834 835 836
f 837 838 839 840
f 841 842 843 844
f 845 846 847 848
f 849 850 851 852
f 853 854 855 856
f 857 858 859 860
f 861 862 863 864
f 865 866 867 868
f 869 870 871 872
f 873 874 875 876
f 877 878 879 880
f 881 882 883 884
f 885 886 887 888
f 889 890 891 892
f 893 894 895 896
f 897 898 899 900
f 901 902 903 904
f 905 906 907 908
f 909 910 911 912
f 913 914 915 916
f 917 918 919 920
f 921 922 923 924
f 925 926 927 928
f 929 930 931 932
f 933 934 935 936
f 937 938 939 940
f 941 942 943 944
f 945 946 947 948
f 949 950 951 952
f 953 954 955 956
f 957 958 959 960
f 961 962 963 964
f 965 966 967 968
f 969 970 971 972
f 973 974 975 976
f 977 978 979 980
f 981 982 983 984
f 985 986 987 988
f 989 990 991 992
f 993 994 995 996
f 997 998 999 1000
f 1001 1002 1003 1004
f 1005 1006 1007 1008
g NL_IMBAG_Pand_0363100012237178_0_lod22_wall_5
v 119303.830 485111.399 0.524
v 119304.941 485111.913 0.524
v 119304.941 485111.913 18.903
v 119303.830 485111.399 18.903
f 1009 1010 1011 1012
g NL_IMBAG_Pand_0363100012237178_0_lod22_wall_5__openings
g NL_IMBAG_Pand_0363100012237178_0_lod22_wall_5__roofline
v 119303.865 485111.383 7.226
v 119303.911 485111.404 7.161
v 119303.911 485111.404 7.401
v 119303.865 485111.383 7.466
v 119303.911 485111.404 7.161
v 119304.047 485111.467 7.449
v 119304.047 485111.467 7.689
v 119303.911 485111.404 7.401
v 119304.047 485111.467 7.449
v 119304.228 485111.550 7.490
v 119304.228 485111.550 7.730
v 119304.047 485111.467 7.689
v 119304.228 485111.550 7.490
v 119304.274 485111.571 10.393
v 119304.274 485111.571 10.633
v 119304.228 485111.550 7.730
v 119304.274 485111.571 10.393
v 119304.410 485111.634 10.393
v 119304.410 485111.634 10.633
v 119304.274 485111.571 10.633
v 119304.410 485111.634 10.393
v 119304.455 485111.655 10.640
v 119304.455 485111.655 10.880
v 119304.410 485111.634 10.633
v 119304.455 485111.655 10.640
v 119304.501 485111.676 10.393
v 119304.501 485111.676 10.633
v 119304.455 485111.655 10.880
v 119304.501 485111.676 10.393
v 119304.682 485111.760 10.342
v 119304.682 485111.760 10.582
v 119304.501 485111.676 10.633
v 119304.682 485111.760 10.342
v 119304.864 485111.844 17.785
v 119304.864 485111.844 18.025
v 119304.682 485111.760 10.582
v 119304.864 485111.844 17.785
v 119304.955 485111.886 17.963
v 119304.955 485111.886 18.203
v 119304.864 485111.844 18.025
f 1013 1014 1015 1016
f 1017 1018 1019 1020
f 1021 1022 1023 1024
f 1025 1026 1027 1028
f 1029 1030 1031 1032
f 1033 1034 1035 1036
f 1037 1038 1039 1040
f 1041 1042 1043 1044
f 1045 1046 1047 1048
f 1049 1050 1051 1052
g NL_IMBAG_Pand_0363100012237178_0_lod22_wall_6
v 119304.941 485111.913 0.524
v 119305.551 485112.229 0.524
v 119305.551 485112.229 19.678
v 119304.941 485111.913 19.678
f 1053 1054 1055 1056
g NL_IMBAG_Pand_0363100012237178_0_lod22_wall_6__openings
g NL_IMBAG_Pand_0363100012237178_0_lod22_wall_6__roofline
v 119304.977 485111.897 17.831
v 119305.155 485111.989 14.902
v 119305.155 485111.989 15.142
v 119304.977 485111.897 18.071
v 119305.155 485111.989 14.902
v 119305.554 485112.196 14.843
v 119305.554 485112.196 15.083
v 119305.155 485111.989 15.142
f 1057 1058 1059 1060
f 1061 1062 1063 1064
g NL_IMBAG_Pand_0363100012237178_0_lod22_wall_9
v 119307.288 485113.269 0.524
v 119308.342 485114.019 0.524
v 119308.342 485114.019 19.532
v 119307.288 485113.269 19.532
f 1065 1066 1067 1068
g NL_IMBAG_Pand_0363100012237178_0_lod22_wall_9__openings
g NL_IMBAG_Pand_0363100012237178_0_lod22_wall_9__roofline
v 119307.326 485113.260 19.400
v 119307.407 485113.317 19.339
v 119307.407 485113.317 19.579
v 119307.326 485113.260 19.640
v 119307.407 485113.317 19.339
v 119307.489 485113.375 15.274
v 119307.489 485113.375 15.514
v 119307.407 485113.317 19.579
v 119307.489 485113.375 15.274
v 119307.570 485113.433 15.274
v 119307.570 485113.433 15.514
v 119307.489 485113.375 15.514
v 119307.570 485113.433 15.274
v 119307.611 485113.462 14.888
v 119307.611 485113.462 15.128
v 119307.570 485113.433 15.514
v 119307.611 485113.462 14.888
v 119307.733 485113.549 14.888
v 119307.733 485113.549 15.128
v 119307.611 485113.462 15.128
v 119307.733 485113.549 14.888
v 119307.774 485113.578 15.199
v 119307.774 485113.578 15.439
v 119307.733 485113.549 15.128
v 119307.774 485113.578 15.199
v 119307.978 485113.723 15.199
v 119307.978 485113.723 15.439
v 119307.774 485113.578 15.439
v 119307.978 485113.723 15.199
v 119308.019 485113.752 15.802
v 119308.019 485113.752 16.042
v 119307.978 485113.723 15.439
v 119308.019 485113.752 15.802
v 119308.141 485113.839 12.949
v 119308.141 485113.839 13.189
v 119308.019 485113.752 16.042
v 119308.141 485113.839 12.949
v 119308.222 485113.897 15.000
v 119308.222 485113.897 15.240
v 119308.141 485113.839 13.189
v 119308.222 485113.897 15.000
v 119308.263 485113.926 14.199
v 119308.263 485113.926 14.439
v 119308.222 485113.897 15.240
v 119308.263 485113.926 14.199
v 119308.345 485113.984 17.884
v 119308.345 485113.984 18.124
v 119308.263 485113.926 14.439
f 1069 1070 1071 1072
f 1073 1074 1075 1076
f 1077 1078 1079 1080
f 1081 1082 1083 1084
f 1085 1086 1087 1088
f 1089 1090 1091 1092
f 1093 1094 1095 1096
f 1097 1098 1099 1100
f 1101 1102 1103 1104
f 1105 1106 1107 1108
f 1109 1110 1111 1112
f 1113 1114 1115 1116
g NL_IMBAG_Pand_0363100012237178_0_lod22_wall_11
v 119309.418 485114.888 0.524
v 119310.347 485115.736 0.524
v 119310.347 485115.736 16.305
v 119309.418 485114.888 16.305
v 119309.436 485114.904 16.305
v 119309.436 485114.904 16.468
v 119310.359 485115.748 17.892
v 119310.359 485115.748 16.305
f 1117 1118 1119 1120
f 1121 1122 1123 1124
g NL_IMBAG_Pand_0363100012237178_0_lod22_wall_11__openings
g NL_IMBAG_Pand_0363100012237178_0_lod22_wall_11__roofline
v 119309.457 485114.882 16.348
v 119309.604 485115.017 15.640
v 119309.604 485115.017 15.880
v 119309.457 485114.882 16.588
v 119309.604 485115.017 15.640
v 119309.715 485115.118 12.051
v 119309.715 485115.118 12.291
v 119309.604 485115.017 15.880
v 119309.715 485115.118 12.051
v 119309.752 485115.152 11.603
v 119309.752 485115.152 11.843
v 119309.715 485115.118 12.291
v 119309.752 485115.152 11.603
v 119309.826 485115.220 11.603
v 119309.826 485115.220 11.843
v 119309.752 485115.152 11.843
v 119309.826 485115.220 11.603
v 119309.863 485115.253 12.051
v 119309.863 485115.253 12.291
v 119309.826 485115.220 11.843
v 119309.863 485115.253 12.051
v 119309.937 485115.321 12.051
v 119309.937 485115.321 12.291
v 119309.863 485115.253 12.291
v 119309.937 485115.321 12.051
v 119309.973 485115.354 14.799
v 119309.973 485115.354 15.039
v 119309.937 485115.321 12.291
v 119309.973 485115.354 14.799
v 119310.047 485115.422 14.799
v 119310.047 485115.422 15.039
v 119309.973 485115.354 15.039
v 119310.047 485115.422 14.799
v 119310.121 485115.489 15.687
v 119310.121 485115.489 15.927
v 119310.047 485115.422 15.039
v 119310.121 485115.489 15.687
v 119310.195 485115.557 15.687
v 119310.195 485115.557 15.927
v 119310.121 485115.489 15.927
v 119310.195 485115.557 15.687
v 119310.232 485115.591 17.651
v 119310.232 485115.591 17.891
v 119310.195 485115.557 15.927
v 119310.232 485115.591 17.651
v 119310.379 485115.725 17.772
v 119310.379 485115.725 18.012
v 119310.232 485115.591 17.891
f 1125 1126 1127 1128
f 1129 1130 1131 1132
f 1133 1134 1135 1136
f 1137 1138 1139 1140
f 1141 1142 1143 1144
f 1145 1146 1147 1148
f 1149 1150 1151 1152
f 1153 1154 1155 1156
f 1157 1158 1159 1160
f 1161 1162 1163 1164
f 1165 1166 1167 1168
f 1169 1170 1171 1172
g NL_IMBAG_Pand_0363100012237178_0_lod22_wall_12
v 119308.936 485114.484 0.524
v 119309.418 485114.888 0.524
v 119309.418 485114.888 16.450
v 119308.936 485114.484 16.450
f 1173 1174 1175 1176
g NL_IMBAG_Pand_0363100012237178_0_lod22_wall_12__openings
g NL_IMBAG_Pand_0363100012237178_0_lod22_wall_12__roofline
v 119308.974 485114.477 16.242
v 119309.128 485114.605 13.671
v 119309.128 485114.605 13.911
v 119308.974 485114.477 16.482
v 119309.128 485114.605 13.671
v 119309.166 485114.637 13.453
v 119309.166 485114.637 13.693
v 119309.128 485114.605 13.911
v 119309.166 485114.637 13.453
v 119309.204 485114.669 13.553
v 119309.204 485114.669 13.793
v 119309.166 485114.637 13.693
v 119309.204 485114.669 13.553
v 119309.319 485114.766 13.397
v 119309.319 485114.766 13.637
v 119309.204 485114.669 13.793
v 119309.319 485114.766 13.397
v 119309.434 485114.862 13.453
v 119309.434 485114.862 13.693
v 119309.319 485114.766 13.637
f 1177 1178 1179 1180
f 1181 1182 1183 1184
f 1185 1186 1187 1188
f 1189 1190 1191 1192
f 1193 1194 1195 1196
g NL_IMBAG_Pand_0363100012237178_0_lod22_wall_14
v 119310.347 485115.736 0.524
v 119311.137 485116.546 0.524
v 119311.137 485116.546 16.124
v 119310.347 485115.736 16.124
v 119310.364 485115.754 16.124
v 119310.364 485115.754 17.856
v 119310.574 485115.969 17.821
v 119311.028 485116.434 16.149
v 119311.132 485116.542 17.672
v 119311.132 485116.542 16.124
f 1197 1198 1199 1200
f 1201 1202 1203 1204 1205 1206
g NL_IMBAG_Pand_0363100012237178_0_lod22_wall_14__openings
g NL_IMBAG_Pand_0363100012237178_0_lod22_wall_14__roofline
v 119310.386 485115.733 17.736
v 119310.595 485115.948 17.701
v 119310.595 485115.948 17.941
v 119310.386 485115.733 17.976
v 119310.595 485115.948 17.701
v 119310.630 485115.984 15.438
v 119310.630 485115.984 15.678
v 119310.595 485115.948 17.941
v 119310.630 485115.984 15.438
v 119310.770 485116.127 15.438
v 119310.770 485116.127 15.678
v 119310.630 485115.984 15.678
v 119310.770 485116.127 15.438
v 119310.945 485116.306 15.670
v 119310.945 485116.306 15.910
v 119310.770 485116.127 15.678
v 119310.945 485116.306 15.670
v 119311.014 485116.378 16.389
v 119311.014 485116.378 16.629
v 119310.945 485116.306 15.910
v 119311.014 485116.378 16.389
v 119311.049 485116.414 16.029
v 119311.049 485116.414 16.269
v 119311.014 485116.378 16.629
v 119311.049 485116.414 16.029
v 119311.154 485116.521 17.552
v 119311.154 485116.521 17.792
v 119311.049 485116.414 16.269
f 1207 1208 1209 1210
f 1211 1212 1213 1214
f 1215 1216 1217 1218
f 1219 1220 1221 1222
f 1223 1224 1225 1226
f 1227 1228 1229 1230
f 1231 1232 1233 1234
g NL_IMBAG_Pand_0363100012237178_0_lod22_wall_15
v 119311.137 485116.546 0.524
v 119311.558 485117.014 0.524
v 119311.558 485117.014 16.114
v 119311.137 485116.546 16.114
v 119311.154 485116.565 16.114
v 119311.154 485116.565 16.507
v 119311.355 485116.788 16.221
v 119311.355 485116.788 16.114
f 1235 1236 1237 1238
f 1239 1240 1241 1242
g NL_IMBAG_Pand_0363100012237178_0_lod22_wall_15__openings
g NL_IMBAG_Pand_0363100012237178_0_lod22_wall_15__roofline
v 119311.176 485116.545 16.387
v 119311.377 485116.768 16.101
v 119311.377 485116.768 16.341
v 119311.176 485116.545 16.627
v 119311.377 485116.768 16.101
v 119311.410 485116.805 15.795
v 119311.410 485116.805 16.035
v 119311.377 485116.768 16.341
v 119311.410 485116.805 15.795
v 119311.511 485116.916 15.795
v 119311.511 485116.916 16.035
v 119311.410 485116.805 16.035
v 119311.511 485116.916 15.795
v 119311.578 485116.991 15.352
v 119311.578 485116.991 15.592
v 119311.511 485116.916 16.035
f 1243 1244 1245 1246
f 1247 1248 1249 1250
f 1251 1252 1253 1254
f 1255 1256 1257 1258
g NL_IMBAG_Pand_0363100012237178_0_lod22_wall_16
v 119311.558 485117.014 0.524
v 119312.045 485117.591 0.524
v 119312.045 485117.591 16.195
v 119311.558 485117.014 16.195
f 1259 1260 1261 1262
g NL_IMBAG_Pand_0363100012237178_0_lod22_wall_16__openings
g NL_IMBAG_Pand_0363100012237178_0_lod22_wall_16__roofline
v 119311.597 485117.013 16.337
v 119311.726 485117.166 16.337
v 119311.726 485117.166 16.577
v 119311.597 485117.013 16.577
v 119311.726 485117.166 16.337
v 119311.823 485117.281 14.985
v 119311.823 485117.281 15.225
v 119311.726 485117.166 16.577
v 119311.823 485117.281 14.985
v 119311.952 485117.434 14.951
v 119311.952 485117.434 15.191
v 119311.823 485117.281 15.225
v 119311.952 485117.434 14.951
v 119311.984 485117.472 15.193
v 119311.984 485117.472 15.433
v 119311.952 485117.434 15.191
v 119311.984 485117.472 15.193
v 119312.016 485117.510 14.951
v 119312.016 485117.510 15.191
v 119311.984 485117.472 15.433
v 119312.016 485117.510 14.951
v 119312.081 485117.586 15.436
v 119312.081 485117.586 15.676
v 119312.016 485117.510 15.191
f 1263 1264 1265 1266
f 1267 1268 1269 1270
f 1271 1272 1273 1274
f 1275 1276 1277 1278
f 1279 1280 1281 1282
f 1283 1284 1285 1286
g NL_IMBAG_Pand_0363100012237178_0_lod22_wall_17
v 119312.045 485117.591 0.524
v 119312.811 485118.590 0.524
v 119312.811 485118.590 16.449
v 119312.045 485117.591 16.449
f 1287 1288 1289 1290
g NL_IMBAG_Pand_0363100012237178_0_lod22_wall_17__openings
g NL_IMBAG_Pand_0363100012237178_0_lod22_wall_17__roofline
v 119312.084 485117.592 16.335
v 119312.206 485117.751 16.075
v 119312.206 485117.751 16.315
v 119312.084 485117.592 16.575
v 119312.206 485117.751 16.075
v 119312.267 485117.830 15.553
v 119312.267 485117.830 15.793
v 119312.206 485117.751 16.315
v 119312.267 485117.830 15.553
v 119312.388 485117.989 15.553
v 119312.388 485117.989 15.793
v 119312.267 485117.830 15.793
v 119312.388 485117.989 15.553
v 119312.540 485118.187 16.142
v 119312.540 485118.187 16.382
v 119312.388 485117.989 15.793
v 119312.540 485118.187 16.142
v 119312.662 485118.346 15.300
v 119312.662 485118.346 15.540
v 119312.540 485118.187 16.382
v 119312.662 485118.346 15.300
v 119312.753 485118.465 15.759
v 119312.753 485118.465 15.999
v 119312.662 485118.346 15.540
v 119312.753 485118.465 15.759
v 119312.845 485118.584 15.297
v 119312.845 485118.584 15.537
v 119312.753 485118.465 15.999
f 1291 1292 1293 1294
f 1295 1296 1297 1298
f 1299 1300 1301 1302
f 1303 1304 1305 1306
f 1307 1308 1309 1310
f 1311 1312 1313 1314
f 1315 1316 1317 1318
g NL_IMBAG_Pand_0363100012237178_0_lod22_wall_18
v 119312.811 485118.590 0.524
v 119313.241 485119.208 0.524
v 119313.241 485119.208 16.669
v 119312.811 485118.590 16.669
v 119313.139 485119.061 16.669
v 119313.139 485119.061 17.295
v 119313.168 485119.103 17.038
v 119313.168 485119.103 16.669
f 1319 1320 1321 1322
f 1323 1324 1325 1326
g NL_IMBAG_Pand_0363100012237178_0_lod22_wall_18__openings
g NL_IMBAG_Pand_0363100012237178_0_lod22_wall_18__roofline
v 119312.850 485118.593 15.698
v 119313.021 485118.839 15.801
v 119313.021 485118.839 16.041
v 119312.850 485118.593 15.938
v 119313.021 485118.839 15.801
v 119313.050 485118.880 16.388
v 119313.050 485118.880 16.628
v 119313.021 485118.839 16.041
v 119313.050 485118.880 16.388
v 119313.135 485119.003 16.388
v 119313.135 485119.003 16.628
v 119313.050 485118.880 16.628
v 119313.135 485119.003 16.388
v 119313.164 485119.044 17.175
v 119313.164 485119.044 17.415
v 119313.135 485119.003 16.628
v 119313.164 485119.044 17.175
v 119313.221 485119.126 16.388
v 119313.221 485119.126 16.628
v 119313.164 485119.044 17.415
v 119313.221 485119.126 16.388
v 119313.278 485119.209 16.380
v 119313.278 485119.209 16.620
v 119313.221 485119.126 16.628
f 1327 1328 1329 1330
f 1331 1332 1333 1334
f 1335 1336 1337 1338
f 1339 1340 1341 1342
f 1343 1344 1345 1346
f 1347 1348 1349 1350
g NL_IMBAG_Pand_0363100012237178_0_lod22_wall_19
v 119313.241 485119.208 0.524
v 119313.584 485119.736 0.524
v 119313.584 485119.736 16.892
v 119313.241 485119.208 16.892
v 119313.255 485119.228 16.892
v 119313.255 485119.228 17.705
v 119313.364 485119.396 17.697
v 119313.364 485119.396 16.892
f 1351 1352 1353 1354
f 1355 1356 1357 1358
g NL_IMBAG_Pand_0363100012237178_0_lod22_wall_19__openings
g NL_IMBAG_Pand_0363100012237178_0_lod22_wall_19__roofline
v 119313.280 485119.212 17.585
v 119313.389 485119.380 17.577
v 119313.389 485119.380 17.817
v 119313.280 485119.212 17.825
v 119313.389 485119.380 17.577
v 119313.416 485119.422 16.380
v 119313.416 485119.422 16.620
v 119313.389 485119.380 17.817
v 119313.416 485119.422 16.380
v 119313.470 485119.506 16.181
v 119313.470 485119.506 16.421
v 119313.416 485119.422 16.620
v 119313.470 485119.506 16.181
v 119313.607 485119.715 16.380
v 119313.607 485119.715 16.620
v 119313.470 485119.506 16.421
f 1359 1360 1361 1362
f 1363 1364 1365 1366
f 1367 1368 1369 1370
f 1371 1372 1373 1374
g NL_IMBAG_Pand_0363100012237178_0_lod22_wall_22
v 119313.584 485119.736 0.524
v 119314.043 485120.519 0.524
v 119314.043 485120.519 17.290
v 119313.584 485119.736 17.290
v 119313.597 485119.757 17.290
v 119313.597 485119.757 17.605
v 119313.622 485119.800 17.426
v 119314.052 485120.533 18.151
v 119314.052 485120.533 17.290
f 1375 1376 1377 1378
f 1379 1380 1381 1382 1383
g NL_IMBAG_Pand_0363100012237178_0_lod22_wall_22__openings
g NL_IMBAG_Pand_0363100012237178_0_lod22_wall_22__roofline
v 119313.623 485119.742 17.485
v 119313.724 485119.914 16.382
v 119313.724 485119.914 16.622
v 119313.623 485119.742 17.725
v 119313.724 485119.914 16.382
v 119313.875 485120.173 16.382
v 119313.875 485120.173 16.622
v 119313.724 485119.914 16.622
v 119313.875 485120.173 16.382
v 119313.901 485120.216 17.779
v 119313.901 485120.216 18.019
v 119313.875 485120.173 16.622
v 119313.901 485120.216 17.779
v 119314.078 485120.518 18.031
v 119314.078 485120.518 18.271
v 119313.901 485120.216 18.019
f 1384 1385 1386 1387
f 1388 1389 1390 1391
f 1392 1393 1394 1395
f 1396 1397 1398 1399
g NL_IMBAG_Pand_0363100012237178_0_lod22_wall_24
v 119314.220 485120.820 0.524
v 119314.572 485121.489 0.524
v 119314.572 485121.489 19.615
v 119314.220 485120.820 19.615
f 1400 1401 1402 1403
g NL_IMBAG_Pand_0363100012237178_0_lod22_wall_24__openings
g NL_IMBAG_Pand_0363100012237178_0_lod22_wall_24__roofline
v 119314.258 485120.828 17.986
v 119314.305 485120.916 17.145
v 119314.305 485120.916 17.385
v 119314.258 485120.828 18.226
v 119314.305 485120.916 17.145
v 119314.328 485120.960 17.338
v 119314.328 485120.960 17.578
v 119314.305 485120.916 17.385
v 119314.328 485120.960 17.338
v 119314.375 485121.049 17.231
v 119314.375 485121.049 17.471
v 119314.328 485120.960 17.578
v 119314.375 485121.049 17.231
v 119314.398 485121.093 17.531
v 119314.398 485121.093 17.771
v 119314.375 485121.049 17.471
v 119314.398 485121.093 17.531
v 119314.468 485121.226 17.231
v 119314.468 485121.226 17.471
v 119314.398 485121.093 17.771
v 119314.468 485121.226 17.231
v 119314.561 485121.403 18.202
v 119314.561 485121.403 18.442
v 119314.468 485121.226 17.471
v 119314.561 485121.403 18.202
v 119314.607 485121.491 18.202
v 119314.607 485121.491 18.442
v 119314.561 485121.403 18.442
f 1404 1405 1406 1407
f 1408 1409 1410 1411
f 1412 1413 1414 1415
f 1416 1417 1418 1419
f 1420 1421 1422 1423
f 1424 1425 1426 1427
f 1428 1429 1430 1431
g NL_IMBAG_Pand_0363100012237178_0_lod22_wall_28
v 119315.155 485122.744 0.524
v 119315.394 485123.326 0.524
v 119315.394 485123.326 20.197
v 119315.155 485122.744 20.197
f 1432 1433 1434 1435
g NL_IMBAG_Pand_0363100012237178_0_lod22_wall_28__openings
g NL_IMBAG_Pand_0363100012237178_0_lod22_wall_28__roofline
v 119315.192 485122.755 18.131
v 119315.306 485123.033 18.080
v 119315.306 485123.033 18.320
v 119315.192 485122.755 18.371
v 119315.306 485123.033 18.080
v 119315.325 485123.079 15.449
v 119315.325 485123.079 15.689
v 119315.306 485123.033 18.320
v 119315.325 485123.079 15.449
v 119315.420 485123.310 15.346
v 119315.420 485123.310 15.586
v 119315.325 485123.079 15.689
f 1436 1437 1438 1439
f 1440 1441 1442 1443
f 1444 1445 1446 1447
g NL_IMBAG_Pand_0363100012237178_0_lod22_wall_29
v 119315.394 485123.326 0.524
v 119315.779 485124.389 0.524
v 119315.779 485124.389 19.423
v 119315.394 485123.326 19.423
f 1448 1449 1450 1451
g NL_IMBAG_Pand_0363100012237178_0_lod22_wall_29__openings
g NL_IMBAG_Pand_0363100012237178_0_lod22_wall_29__roofline
v 119315.431 485123.339 15.652
v 119315.567 485123.715 15.692
v 119315.567 485123.715 15.932
v 119315.431 485123.339 15.892
v 119315.567 485123.715 15.692
v 119315.669 485123.997 16.484
v 119315.669 485123.997 16.724
v 119315.567 485123.715 15.932
v 119315.669 485123.997 16.484
v 119315.703 485124.091 16.300
v 119315.703 485124.091 16.540
v 119315.669 485123.997 16.724
v 119315.703 485124.091 16.300
v 119315.737 485124.185 16.358
v 119315.737 485124.185 16.598
v 119315.703 485124.091 16.540
v 119315.737 485124.185 16.358
v 119315.754 485124.232 16.826
v 119315.754 485124.232 17.066
v 119315.737 485124.185 16.598
v 119315.754 485124.232 16.826
v 119315.771 485124.279 16.358
v 119315.771 485124.279 16.598
v 119315.754 485124.232 17.066
v 119315.771 485124.279 16.358
v 119315.788 485124.326 17.073
v 119315.788 485124.326 17.313
v 119315.771 485124.279 16.598
v 119315.788 485124.326 17.073
v 119315.805 485124.373 16.358
v 119315.805 485124.373 16.598
v 119315.788 485124.326 17.313
f 1452 1453 1454 1455
f 1456 1457 1458 1459
f 1460 1461 1462 1463
f 1464 1465 1466 1467
f 1468 1469 1470 1471
f 1472 1473 1474 1475
f 1476 1477 1478 1479
f 1480 1481 1482 1483
g NL_IMBAG_Pand_0363100012237178_0_lod22_wall_31
v 119315.893 485124.755 0.524
v 119316.004 485125.110 0.524
v 119316.004 485125.110 18.743
v 119315.893 485124.755 18.743
f 1484 1485 1486 1487
g NL_IMBAG_Pand_0363100012237178_0_lod22_wall_31__openings
g NL_IMBAG_Pand_0363100012237178_0_lod22_wall_31__roofline
v 119315.929 485124.769 16.245
v 119316.034 485125.103 16.396
v 119316.034 485125.103 16.636
v 119315.929 485124.769 16.485
f 1488 1489 1490 1491
g NL_IMBAG_Pand_0363100012237178_0_lod22_wall_34
v 119315.779 485124.389 0.524
v 119315.893 485124.755 0.524
v 119315.893 485124.755 18.033
v 119315.779 485124.389 18.033
f 1492 1493 1494 1495
g NL_IMBAG_Pand_0363100012237178_0_lod22_wall_34__openings
g NL_IMBAG_Pand_0363100012237178_0_lod22_wall_34__roofline
v 119315.815 485124.403 16.388
v 119315.845 485124.499 16.238
v 119315.845 485124.499 16.478
v 119315.815 485124.403 16.628
v 119315.845 485124.499 16.238
v 119315.919 485124.738 16.388
v 119315.919 485124.738 16.628
v 119315.845 485124.499 16.478
f 1496 1497 1498 1499
f 1500 1501 1502 1503
g NL_IMBAG_Pand_0363100012237178_0_lod22_wall_36
v 119316.004 485125.110 0.524
v 119316.017 485125.158 0.524
v 119316.017 485125.158 18.744
v 119316.004 485125.110 18.744
v 119316.017 485125.158 0.524
v 119316.173 485125.717 0.524
v 119316.173 485125.717 5.774
v 119316.017 485125.158 5.774
v 119316.017 485125.158 7.424
v 119316.173 485125.717 7.424
v 119316.173 485125.717 9.274
v 119316.017 485125.158 9.274
v 119316.017 485125.158 10.924
v 119316.173 485125.717 10.924
v 119316.173 485125.717 12.674
v 119316.017 485125.158 12.674
v 119316.017 485125.158 14.174
v 119316.173 485125.717 14.174
v 119316.173 485125.717 18.744
v 119316.017 485125.158 18.744
f 1504 1505 1506 1507
f 1508 1509 1510 1511
f 1512 1513 1514 1515
f 1516 1517 1518 1519
f 1520 1521 1522 1523
g NL_IMBAG_Pand_0363100012237178_0_lod22_wall_36__openings
v 119315.825 485125.211 5.774
v 119315.986 485125.789 5.774
v 119315.986 485125.789 7.424
v 119315.825 485125.211 7.424
v 119316.017 485125.158 5.774
v 119316.178 485125.736 5.774
v 119316.178 485125.736 7.424
v 119316.017 485125.158 7.424
v 119315.825 485125.211 9.274
v 119315.986 485125.789 9.274
v 119315.986 485125.789 10.924
v 119315.825 485125.211 10.924
v 119316.017 485125.158 9.274
v 119316.178 485125.736 9.274
v 119316.178 485125.736 10.924
v 119316.017 485125.158 10.924
v 119315.825 485125.211 12.674
v 119315.986 485125.789 12.674
v 119315.986 485125.789 14.174
v 119315.825 485125.211 14.174
v 119316.017 485125.158 12.674
v 119316.178 485125.736 12.674
v 119316.178 485125.736 14.174
v 119316.017 485125.158 14.174
f 1524 1525 1526 1527
f 1528 1524 1527 1531
f 1529 1530 1526 1525
f 1528 1529 1525 1524
f 1531 1527 1526 1530
f 1532 1533 1534 1535
f 1536 1532 1535 1539
f 1537 1538 1534 1533
f 1536 1537 1533 1532
f 1539 1535 1534 1538
f 1540 1541 1542 1543
f 1544 1540 1543 1547
f 1545 1546 1542 1541
f 1544 1545 1541 1540
f 1547 1543 1542 1546
g NL_IMBAG_Pand_0363100012237178_0_lod22_wall_36__roofline
v 119316.040 485125.126 16.328
v 119316.107 485125.366 16.248
v 119316.107 485125.366 16.488
v 119316.040 485125.126 16.568
v 119316.107 485125.366 16.248
v 119316.120 485125.415 15.551
v 119316.120 485125.415 15.791
v 119316.107 485125.366 16.488
v 119316.120 485125.415 15.551
v 119316.147 485125.511 16.248
v 119316.147 485125.511 16.488
v 119316.120 485125.415 15.791
v 119316.147 485125.511 16.248
v 119316.160 485125.559 15.899
v 119316.160 485125.559 16.139
v 119316.147 485125.511 16.488
v 119316.160 485125.559 15.899
v 119316.174 485125.607 16.248
v 119316.174 485125.607 16.488
v 119316.160 485125.559 16.139
v 119316.174 485125.607 16.248
v 119316.201 485125.704 16.248
v 119316.201 485125.704 16.488
v 119316.174 485125.607 16.488
f 1548 1549 1550 1551
f 1552 1553 1554 1555
f 1556 1557 1558 1559
f 1560 1561 1562 1563
f 1564 1565 1566 1567
f 1568 1569 1570 1571
g NL_IMBAG_Pand_0363100012237178_0_lod22_wall_39
v 119316.252 485126.058 0.524
v 119316.462 485126.972 0.524
v 119316.462 485126.972 18.744
v 119316.252 485126.058 18.744
v 119316.173 485125.717 0.524
v 119316.252 485126.058 0.524
v 119316.252 485126.058 6.374
v 119316.173 485125.717 6.374
v 119316.173 485125.717 7.374
v 119316.252 485126.058 7.374
v 119316.252 485126.058 9.274
v 119316.173 485125.717 9.274
v 119316.173 485125.717 10.874
v 119316.252 485126.058 10.874
v 119316.252 485126.058 12.624
v 119316.173 485125.717 12.624
v 119316.173 485125.717 14.174
v 119316.252 485126.058 14.174
v 119316.252 485126.058 18.744
v 119316.173 485125.717 18.744
f 1572 1573 1574 1575
f 1576 1577 1578 1579
f 1580 1581 1582 1583
f 1584 1585 1586 1587
f 1588 1589 1590 1591
g NL_IMBAG_Pand_0363100012237178_0_lod22_wall_39__openings
v 119315.978 485125.761 6.374
v 119316.057 485126.102 6.374
v 119316.057 485126.102 7.374
v 119315.978 485125.761 7.374
v 119316.173 485125.717 6.374
v 119316.252 485126.058 6.374
v 119316.252 485126.058 7.374
v 119316.173 485125.717 7.374
v 119315.978 485125.761 9.274
v 119316.057 485126.102 9.274
v 119316.057 485126.102 10.874
v 119315.978 485125.761 10.874
v 119316.173 485125.717 9.274
v 119316.252 485126.058 9.274
v 119316.252 485126.058 10.874
v 119316.173 485125.717 10.874
v 119315.978 485125.761 12.624
v 119316.057 485126.102 12.624
v 119316.057 485126.102 14.174
v 119315.978 485125.761 14.174
v 119316.173 485125.717 12.624
v 119316.252 485126.058 12.624
v 119316.252 485126.058 14.174
v 119316.173 485125.717 14.174
f 1592 1593 1594 1595
f 1596 1592 1595 1599
f 1597 1598 1594 1593
f 1596 1597 1593 1592
f 1599 1595 1594 1598
f 1600 1601 1602 1603
f 1604 1600 1603 1607
f 1605 1606 1602 1601
f 1604 1605 1601 1600
f 1607 1603 1602 1606
f 1608 1609 1610 1611
f 1612 1608 1611 1615
f 1613 1614 1610 1609
f 1612 1613 1609 1608
f 1615 1611 1610 1614
g NL_IMBAG_Pand_0363100012237178_0_lod22_wall_39__roofline
v 119316.208 485125.734 15.948
v 119316.275 485126.026 15.944
v 119316.275 485126.026 16.184
v 119316.208 485125.734 16.188
v 119316.275 485126.026 15.944
v 119316.298 485126.124 15.240
v 119316.298 485126.124 15.480
v 119316.275 485126.026 16.184
v 119316.298 485126.124 15.240
v 119316.365 485126.416 14.931
v 119316.365 485126.416 15.171
v 119316.298 485126.124 15.480
v 119316.365 485126.416 14.931
v 119316.376 485126.465 14.399
v 119316.376 485126.465 14.639
v 119316.365 485126.416 15.171
v 119316.376 485126.465 14.399
v 119316.399 485126.562 15.130
v 119316.399 485126.562 15.370
v 119316.376 485126.465 14.639
v 119316.399 485126.562 15.130
v 119316.410 485126.611 14.100
v 119316.410 485126.611 14.340
v 119316.399 485126.562 15.370
v 119316.410 485126.611 14.100
v 119316.443 485126.757 14.100
v 119316.443 485126.757 14.340
v 119316.410 485126.611 14.340
v 119316.443 485126.757 14.100
v 119316.466 485126.855 15.299
v 119316.466 485126.855 15.539
v 119316.443 485126.757 14.340
v 119316.466 485126.855 15.299
v 119316.477 485126.904 15.500
v 119316.477 485126.904 15.740
v 119316.466 485126.855 15.539
v 119316.477 485126.904 15.500
v 119316.488 485126.952 15.299
v 119316.488 485126.952 15.539
v 119316.477 485126.904 15.740
f 1616 1617 1618 1619
f 1620 1621 1622 1623
f 1624 1625 1626 1627
f 1628 1629 1630 1631
f 1632 1633 1634 1635
f 1636 1637 1638 1639
f 1640 1641 1642 1643
f 1644 1645 1646 1647
f 1648 1649 1650 1651
f 1652 1653 1654 1655
g NL_IMBAG_Pand_0363100012237178_0_lod22_wall_40
v 119314.043 485120.519 0.524
v 119314.220 485120.820 0.524
v 119314.220 485120.820 18.675
v 119314.043 485120.519 18.675
f 1656 1657 1658 1659
g NL_IMBAG_Pand_0363100012237178_0_lod22_wall_40__openings
g NL_IMBAG_Pand_0363100012237178_0_lod22_wall_40__roofline
v 119314.082 485120.525 17.039
v 119314.132 485120.611 17.295
v 119314.132 485120.611 17.535
v 119314.082 485120.525 17.279
v 119314.132 485120.611 17.295
v 119314.208 485120.740 17.167
v 119314.208 485120.740 17.407
v 119314.132 485120.611 17.535
v 119314.208 485120.740 17.167
v 119314.234 485120.783 17.295
v 119314.234 485120.783 17.535
v 119314.208 485120.740 17.407
f 1660 1661 1662 1663
f 1664 1665 1666 1667
f 1668 1669 1670 1671
g NL_IMBAG_Pand_0363100012237178_0_lod22_wall_54
v 119308.342 485114.019 0.524
v 119308.808 485114.384 0.524
v 119308.808 485114.384 18.102
v 119308.342 485114.019 18.102
f 1672 1673 1674 1675
g NL_IMBAG_Pand_0363100012237178_0_lod22_wall_54__openings
g NL_IMBAG_Pand_0363100012237178_0_lod22_wall_54__roofline
v 119308.380 485114.010 17.842
v 119308.420 485114.041 16.641
v 119308.420 485114.041 16.881
v 119308.380 485114.010 18.082
v 119308.420 485114.041 16.641
v 119308.459 485114.072 17.747
v 119308.459 485114.072 17.987
v 119308.420 485114.041 16.881
v 119308.459 485114.072 17.747
v 119308.498 485114.103 17.039
v 119308.498 485114.103 17.279
v 119308.459 485114.072 17.987
v 119308.498 485114.103 17.039
v 119308.538 485114.134 17.598
v 119308.538 485114.134 17.838
v 119308.498 485114.103 17.279
v 119308.538 485114.134 17.598
v 119308.577 485114.164 16.332
v 119308.577 485114.164 16.572
v 119308.538 485114.134 17.838
v 119308.577 485114.164 16.332
v 119308.813 485114.349 16.324
v 119308.813 485114.349 16.564
v 119308.577 485114.164 16.572
f 1676 1677 1678 1679
f 1680 1681 1682 1683
f 1684 1685 1686 1687
f 1688 1689 1690 1691
f 1692 1693 1694 1695
f 1696 1697 1698 1699
g 3dbag_roofs
v 119316.864 485130.524 16.379
v 119315.954 485131.269 18.407
v 119315.811 485131.387 18.727
v 119315.575 485127.277 18.710
v 119316.462 485126.972 16.787
v 119316.580 485127.620 16.615
v 119316.679 485128.272 16.487
v 119316.759 485128.925 16.401
v 119316.855 485130.236 16.360
v 119315.981 485134.342 17.741
v 119315.811 485131.387 18.635
v 119315.954 485131.269 18.407
v 119316.864 485130.524 16.965
v 119316.874 485130.897 16.871
v 119316.873 485131.554 16.742
v 119316.808 485132.870 16.588
v 119316.752 485133.462 16.567
v 119316.746 485133.524 16.564
v 119312.618 485135.580 19.991
v 119313.108 485136.393 20.761
v 119311.603 485137.365 19.382
v 119311.823 485134.915 18.928
v 119312.521 485134.999 19.720
v 119315.186 485135.052 18.734
v 119315.582 485134.796 18.347
v 119315.981 485134.342 17.741
v 119316.746 485133.524 16.638
v 119316.665 485134.178 17.381
v 119316.012 485137.118 20.799
v 119313.108 485136.393 20.761
v 119312.618 485135.580 19.991
v 119312.521 485134.999 19.375
v 119313.171 485135.076 19.290
v 119313.491 485134.632 18.716
v 119315.709 485138.488 19.335
v 119315.189 485139.861 17.810
v 119311.011 485138.071 18.512
v 119311.126 485137.910 18.704
v 119311.448 485137.465 19.239
v 119311.603 485137.365 19.382
v 119313.108 485136.393 20.761
v 119316.012 485137.118 20.799
v 119310.240 485130.630 15.580
v 119310.083 485135.639 15.625
v 119309.485 485135.490 15.579
v 119309.101 485137.252 15.570
v 119305.512 485135.715 15.287
v 119304.678 485133.649 15.202
v 119305.994 485130.569 15.265
v 119306.250 485130.482 15.283
v 119310.083 485135.639 18.686
v 119310.240 485130.630 18.670
v 119306.250 485130.482 18.631
v 119315.575 485127.277 18.710
v 119315.811 485131.387 18.727
v 119315.981 485134.342 18.739
v 119315.582 485134.796 18.737
v 119315.186 485135.052 18.734
v 119313.491 485134.632 18.716
v 119313.171 485135.076 18.714
v 119312.521 485134.999 18.708
v 119311.823 485134.915 18.701
v 119311.603 485137.365 18.707
v 119311.448 485137.465 18.706
v 119311.126 485137.910 18.704
v 119311.011 485138.071 18.704
v 119309.101 485137.252 18.682
v 119309.485 485135.490 18.680
v 119353.485 485147.119 15.109
v 119355.248 485150.752 15.120
v 119354.821 485150.959 15.115
v 119354.032 485151.573 15.105
v 119352.311 485155.666 15.078
v 119349.037 485154.291 15.046
v 119350.184 485144.467 18.199
v 119348.509 485145.118 16.930
v 119348.146 485143.914 14.487
v 119348.962 485143.175 14.425
v 119350.889 485141.769 14.826
v 119351.604 485143.242 18.190
v 119346.936 485145.084 4.372
v 119347.220 485145.619 5.593
v 119346.043 485146.077 4.409
v 119347.220 485145.619 18.236
v 119346.936 485145.084 18.247
v 119347.308 485144.671 18.246
v 119348.146 485143.914 18.241
v 119348.509 485145.118 18.220
v 119350.184 485144.467 18.199
v 119351.604 485143.242 18.190
v 119353.485 485147.119 18.110
v 119349.037 485154.291 18.098
v 119342.629 485151.599 18.241
v 119342.967 485150.845 18.245
v 119343.334 485150.103 18.247
v 119343.730 485149.377 18.250
v 119344.275 485148.468 18.252
v 119344.865 485147.584 18.252
v 119345.496 485146.731 18.252
v 119345.816 485146.328 18.251
v 119346.043 485146.077 18.251
v 119305.952 485140.968 17.213
v 119308.505 485142.299 17.218
v 119307.809 485144.019 17.196
v 119305.255 485142.712 17.191
v 119315.189 485139.861 14.593
v 119311.863 485147.611 14.508
v 119311.900 485147.649 14.506
v 119309.683 485149.952 14.517
v 119309.715 485150.039 14.514
v 119307.913 485150.907 14.547
v 119307.843 485150.765 14.553
v 119302.238 485150.261 14.732
v 119305.255 485142.712 14.822
v 119307.809 485144.019 14.715
v 119308.505 485142.299 14.735
v 119305.952 485140.968 14.843
v 119306.363 485139.938 14.855
v 119307.717 485136.669 14.892
v 119312.164 485123.622 20.720
v 119310.931 485123.163 19.542
v 119312.904 485121.486 18.717
v 119313.487 485120.991 18.473
v 119313.603 485120.892 18.424
v 119314.043 485120.519 18.240
v 119314.220 485120.820 18.675
v 119314.572 485121.489 19.615
v 119314.847 485122.054 20.399
v 119314.967 485122.323 20.765
v 119308.315 485127.723 19.658
v 119309.019 485129.530 19.674
v 119306.466 485130.407 19.633
v 119306.018 485128.644 19.622
v 119311.730 485124.744 19.678
v 119312.164 485123.622 20.720
v 119314.967 485122.323 20.765
v 119315.155 485122.744 20.197
v 119315.394 485123.326 19.423
v 119315.779 485124.389 18.033
v 119315.893 485124.755 17.564
v 119314.256 485124.549 18.623
v 119313.968 485124.590 18.722
v 119311.742 485124.908 19.488
v 119311.742 485124.908 19.612
v 119311.403 485124.957 19.202
v 119310.483 485123.544 18.846
v 119310.931 485123.163 19.542
v 119312.164 485123.622 20.720
v 119311.730 485124.744 19.678
v 119300.141 485120.715 15.347
v 119303.025 485120.108 15.394
v 119308.150 485123.962 15.429
v 119307.809 485126.029 15.403
v 119304.344 485127.935 15.334
v 119304.334 485127.742 15.336
v 119304.826 485127.559 15.345
v 119303.076 485123.287 15.363
v 119299.407 485121.714 15.326
v 119299.929 485120.495 15.346
v 119308.808 485114.383 17.450
v 119308.086 485114.700 17.957
v 119307.731 485114.855 18.206
v 119307.075 485115.141 18.666
v 119306.905 485115.215 18.785
v 119305.328 485116.601 19.494
v 119305.048 485116.197 19.990
v 119304.837 485115.347 20.676
v 119306.367 485112.693 20.736
v 119306.676 485112.878 20.336
v 119307.288 485113.269 19.532
v 119308.342 485114.019 18.102
v 119304.000 485127.867 15.375
v 119304.940 485130.965 15.406
v 119304.394 485131.170 15.394
v 119303.196 485130.622 15.365
v 119302.391 485128.469 15.340
v 119303.602 485115.490 19.535
v 119303.005 485114.898 18.621
v 119302.532 485114.429 17.898
v 119303.830 485111.399 17.527
v 119304.941 485111.913 18.903
v 119305.551 485112.229 19.678
v 119306.118 485112.545 20.410
v 119306.367 485112.693 20.736
v 119304.837 485115.347 20.676
v 119304.624 485115.415 20.502
v 119303.452 485116.778 18.622
v 119303.602 485115.490 19.902
v 119304.624 485115.415 20.502
v 119304.837 485115.347 20.676
v 119305.048 485116.197 19.990
v 119305.328 485116.601 19.757
v 119304.487 485117.339 18.632
v 119307.731 485114.855 18.674
v 119313.487 485120.991 18.725
v 119312.904 485121.486 18.717
v 119310.931 485123.163 18.691
v 119310.483 485123.544 18.685
v 119311.403 485124.957 18.692
v 119311.742 485124.908 18.696
v 119313.968 485124.590 18.722
v 119314.256 485124.549 18.725
v 119315.893 485124.755 18.743
v 119316.004 485125.110 18.743
v 119316.173 485125.717 18.744
v 119316.462 485126.972 18.744
v 119309.019 485129.530 18.655
v 119308.315 485127.723 18.651
v 119306.018 485128.644 18.623
v 119306.466 485130.407 18.624
v 119305.994 485130.569 18.619
v 119304.940 485130.965 18.606
v 119304.000 485127.867 18.602
v 119304.334 485127.742 18.607
v 119304.344 485127.935 18.606
v 119307.809 485126.029 18.649
v 119308.150 485123.962 18.658
v 119303.025 485120.108 18.609
v 119300.141 485120.715 18.576
v 119299.929 485120.495 18.574
v 119302.532 485114.429 18.617
v 119303.005 485114.898 18.621
v 119303.602 485115.490 18.626
v 119303.452 485116.778 18.622
v 119304.487 485117.339 18.632
v 119305.328 485116.601 18.643
v 119306.905 485115.215 18.664
v 119307.075 485115.141 18.666
v 119313.487 485120.991 18.725
v 119307.731 485114.855 18.674
v 119308.086 485114.700 17.957
v 119308.808 485114.383 16.497
v 119308.936 485114.484 16.450
v 119309.418 485114.888 16.305
v 119310.347 485115.736 16.124
v 119311.137 485116.546 16.085
v 119311.558 485117.014 16.114
v 119312.045 485117.591 16.195
v 119312.811 485118.590 16.449
v 119313.241 485119.208 16.669
v 119313.584 485119.736 16.892
v 119314.043 485120.519 17.290
v 119313.603 485120.892 18.424
f 1700 1701 1702 1703 1704 1705 1706 1707 1708
f 1709 1710 1711 1712 1713 1714 1715 1716 1717
f 1718 1719 1720 1721 1722
f 1723 1724 1725 1726 1727 1728 1729 1730 1731 1732 1733
f 1734 1735 1736 1737 1738 1739 1740 1741
f 1742 1743 1744 1745 1746 1747 1748 1749
f 1750 1751 1752 1753 1754 1755 1756 1757 1758 1759 1760 1761 1762 1763 1764 1765 1766 1767
f 1768 1769 1770 1771 1772 1773
f 1774 1775 1776 1777 1778 1779
f 1780 1781 1782
f 1783 1784 1785 1786 1787 1788 1789 1790 1791 1792 1793 1794 1795 1796 1797 1798 1799 1800
f 1801 1802 1803 1804
f 1805 1806 1807 1808 1809 1810 1811 1812 1813 1814 1815 1816 1817 1818
f 1819 1820 1821 1822 1823 1824 1825 1826 1827 1828
f 1829 1830 1831 1832
f 1833 1834 1835 1836 1837 1838 1839 1840 1841 1842
f 1843 1844 1845 1846 1847 1848
f 1849 1850 1851 1852 1853 1854 1855 1856 1857 1858
f 1859 1860 1861 1862 1863 1864 1865 1866 1867 1868 1869 1870
f 1871 1872 1873 1874 1875
f 1876 1877 1878 1879 1880 1881 1882 1883 1884 1885
f 1886 1887 1888 1889 1890 1891 1892
f 1893 1894 1895 1896 1897 1898 1899 1900 1901 1902 1903 1904 1905 1906 1907 1908 1909 1910 1911 1912 1913 1914 1915 1916 1917 1918 1919 1920 1921 1922 1923 1924 1925 1926 1927
f 1928 1929 1930 1931 1932 1933 1934 1935 1936 1937 1938 1939 1940 1941 1942
g massing
v 119304.678 485133.649 15.202
v 119304.678 485133.649 0.434
v 119305.994 485130.569 0.434
v 119305.994 485130.569 15.265
v 119316.855 485130.236 16.360
v 119316.855 485130.236 0.434
v 119316.864 485130.524 0.434
v 119316.864 485130.524 16.379
v 119316.874 485130.897 16.871
v 119316.874 485130.897 0.434
v 119316.873 485131.554 0.434
v 119316.873 485131.554 16.742
v 119316.665 485134.178 17.381
v 119316.665 485134.178 0.434
v 119316.012 485137.118 0.434
v 119316.012 485137.118 20.799
v 119316.752 485133.462 16.567
v 119316.752 485133.462 0.434
v 119316.746 485133.524 0.434
v 119316.746 485133.524 16.564
v 119315.189 485139.861 17.810
v 119315.189 485139.861 0.434
v 119311.011 485138.071 0.434
v 119311.011 485138.071 18.512
v 119309.101 485137.252 15.570
v 119309.101 485137.252 0.434
v 119305.512 485135.715 0.434
v 119305.512 485135.715 15.287
v 119305.994 485130.569 15.265
v 119305.994 485130.569 0.434
v 119306.250 485130.482 0.434
v 119306.250 485130.482 15.283
v 119306.250 485130.482 18.631
v 119306.250 485130.482 15.283
v 119306.250 485130.482 0.434
v 119315.575 485127.277 0.434
v 119315.575 485127.277 18.710
v 119315.575 485127.277 18.710
v 119315.575 485127.277 0.434
v 119316.462 485126.972 0.434
v 119316.462 485126.972 16.787
v 119311.011 485138.071 18.704
v 119311.011 485138.071 18.512
v 119311.011 485138.071 0.434
v 119309.101 485137.252 0.434
v 119309.101 485137.252 15.570
v 119309.101 485137.252 18.682
v 119305.512 485135.715 15.287
v 119305.512 485135.715 0.434
v 119304.678 485133.649 0.434
v 119304.678 485133.649 15.202
v 119316.012 485137.118 20.799
v 119316.012 485137.118 0.434
v 119315.709 485138.488 0.434
v 119315.709 485138.488 19.335
v 119354.032 485151.573 15.105
v 119354.032 485151.573 0.341
v 119352.311 485155.666 0.341
v 119352.311 485155.666 15.078
v 119355.248 485150.752 15.120
v 119355.248 485150.752 0.341
v 119354.821 485150.959 0.341
v 119354.821 485150.959 15.115
v 119354.821 485150.959 15.115
v 119354.821 485150.959 0.341
v 119354.032 485151.573 0.341
v 119354.032 485151.573 15.105
v 119343.334 485150.103 18.247
v 119343.334 485150.103 0.341
v 119343.730 485149.377 0.341
v 119343.730 485149.377 18.250
v 119342.629 485151.599 18.241
v 119342.629 485151.599 0.341
v 119342.967 485150.845 0.341
v 119342.967 485150.845 18.245
v 119349.037 485154.291 18.098
v 119349.037 485154.291 15.046
v 119349.037 485154.291 0.341
v 119342.629 485151.599 0.341
v 119342.629 485151.599 18.241
v 119342.967 485150.845 18.245
v 119342.967 485150.845 0.341
v 119343.334 485150.103 0.341
v 119343.334 485150.103 18.247
v 119343.730 485149.377 18.250
v 119343.730 485149.377 0.341
v 119344.275 485148.468 0.341
v 119344.275 485148.468 18.252
v 119352.311 485155.666 15.078
v 119352.311 485155.666 0.341
v 119349.037 485154.291 0.341
v 119349.037 485154.291 15.046
v 119348.962 485143.175 14.425
v 119348.962 485143.175 0.341
v 119350.889 485141.769 0.341
v 119350.889 485141.769 14.826
v 119350.889 485141.769 14.826
v 119350.889 485141.769 0.341
v 119351.604 485143.242 0.341
v 119351.604 485143.242 18.190
v 119353.485 485147.119 15.109
v 119353.485 485147.119 0.341
v 119355.248 485150.752 0.341
v 119355.248 485150.752 15.120
v 119346.043 485146.077 4.409
v 119346.043 485146.077 0.341
v 119346.936 485145.084 0.341
v 119346.936 485145.084 4.372
v 119351.604 485143.242 18.190
v 119351.604 485143.242 0.341
v 119353.485 485147.119 0.341
v 119353.485 485147.119 15.109
v 119353.485 485147.119 18.110
v 119302.152 485150.377 14.575
v 119302.152 485150.377 0.049
v 119298.764 485148.875 0.049
v 119298.764 485148.875 14.568
v 119302.238 485150.261 14.580
v 119302.238 485150.261 0.049
v 119302.152 485150.377 0.049
v 119302.152 485150.377 14.575
v 119306.363 485139.938 14.954
v 119306.363 485139.938 0.049
v 119302.238 485150.261 0.049
v 119302.238 485150.261 14.580
v 119298.764 485148.875 14.568
v 119298.764 485148.875 0.049
v 119298.144 485150.319 0.049
v 119298.144 485150.319 14.515
v 119298.144 485150.319 14.515
v 119298.144 485150.319 0.049
v 119295.806 485149.310 0.049
v 119295.806 485149.310 14.509
v 119298.785 485141.910 14.778
v 119298.785 485141.910 0.049
v 119299.874 485139.204 0.049
v 119299.874 485139.204 14.876
v 119300.595 485137.559 14.936
v 119300.595 485137.559 0.049
v 119306.363 485139.938 0.049
v 119306.363 485139.938 14.954
v 119299.874 485139.204 14.876
v 119299.874 485139.204 0.049
v 119300.595 485137.559 0.049
v 119300.595 485137.559 14.936
v 119295.806 485149.310 14.509
v 119295.806 485149.310 0.049
v 119297.282 485145.644 0.049
v 119297.282 485145.644 14.642
v 119297.282 485145.644 15.451
v 119297.282 485145.644 14.642
v 119297.282 485145.644 0.049
v 119297.701 485144.603 0.049
v 119297.701 485144.603 15.639
v 119297.701 485144.603 17.090
v 119297.701 485144.603 15.639
v 119297.701 485144.603 0.049
v 119298.785 485141.910 0.049
v 119298.785 485141.910 14.778
v 119298.785 485141.910 17.120
v 119307.717 485136.669 14.892
v 119307.717 485136.669 0.247
v 119315.189 485139.861 0.247
v 119315.189 485139.861 14.593
v 119311.863 485147.611 14.508
v 119311.863 485147.611 0.247
v 119311.900 485147.649 0.247
v 119311.900 485147.649 14.506
v 119309.683 485149.952 14.517
v 119309.683 485149.952 0.247
v 119309.715 485150.039 0.247
v 119309.715 485150.039 14.514
v 119309.715 485150.039 14.514
v 119309.715 485150.039 0.247
v 119307.913 485150.907 0.247
v 119307.913 485150.907 14.547
v 119307.843 485150.765 14.553
v 119307.843 485150.765 0.247
v 119302.238 485150.261 0.247
v 119302.238 485150.261 14.732
v 119307.913 485150.907 14.547
v 119307.913 485150.907 0.247
v 119307.843 485150.765 0.247
v 119307.843 485150.765 14.553
v 119302.238 485150.261 14.732
v 119302.238 485150.261 0.247
v 119305.255 485142.712 0.247
v 119305.255 485142.712 14.822
v 119305.255 485142.712 17.191
v 119305.255 485142.712 14.822
v 119305.255 485142.712 0.247
v 119305.952 485140.968 0.247
v 119305.952 485140.968 14.843
v 119305.952 485140.968 17.213
v 119305.952 485140.968 14.843
v 119305.952 485140.968 0.247
v 119306.363 485139.938 0.247
v 119306.363 485139.938 14.855
v 119306.363 485139.938 14.855
v 119306.363 485139.938 0.247
v 119307.717 485136.669 0.247
v 119307.717 485136.669 14.892
v 119304.334 485127.742 15.336
v 119304.334 485127.742 0.524
v 119304.826 485127.559 0.524
v 119304.826 485127.559 15.345
v 119304.000 485127.867 18.602
v 119304.000 485127.867 15.375
v 119304.000 485127.867 0.524
v 119304.334 485127.742 0.524
v 119304.334 485127.742 15.336
v 119304.334 485127.742 18.607
v 119305.551 485112.229 19.678
v 119305.551 485112.229 0.524
v 119306.118 485112.545 0.524
v 119306.118 485112.545 20.410
v 119303.076 485123.287 15.363
v 119303.076 485123.287 0.524
v 119299.407 485121.714 0.524
v 119299.407 485121.714 15.326
v 119306.676 485112.878 20.336
v 119306.676 485112.878 0.524
v 119307.288 485113.269 0.524
v 119307.288 485113.269 19.532
v 119314.967 485122.323 20.765
v 119314.967 485122.323 0.524
v 119315.155 485122.744 0.524
v 119315.155 485122.744 20.197
v 119314.847 485122.054 20.399
v 119314.847 485122.054 0.524
v 119314.967 485122.323 0.524
v 119314.967 485122.323 20.765
v 119314.572 485121.489 19.615
v 119314.572 485121.489 0.524
v 119314.847 485122.054 0.524
v 119314.847 485122.054 20.399
v 119309.019 485129.530 19.674
v 119309.019 485129.530 18.655
v 119309.019 485129.530 0.524
v 119306.466 485130.407 0.524
v 119306.466 485130.407 18.624
v 119306.466 485130.407 19.633
v 119306.367 485112.693 20.736
v 119306.367 485112.693 0.524
v 119306.676 485112.878 0.524
v 119306.676 485112.878 20.336
v 119306.118 485112.545 20.410
v 119306.118 485112.545 0.524
v 119306.367 485112.693 0.524
v 119306.367 485112.693 20.736
v 119316.462 485126.972 18.744
v 119316.462 485126.972 0.524
v 119309.019 485129.530 0.524
v 119309.019 485129.530 18.655
v 119303.196 485130.622 15.365
v 119303.196 485130.622 0.524
v 119302.391 485128.469 0.524
v 119302.391 485128.469 15.340
v 119302.391 485128.469 15.340
v 119302.391 485128.469 0.524
v 119304.000 485127.867 0.524
v 119304.000 485127.867 15.375
v 119304.940 485130.965 15.406
v 119304.940 485130.965 0.524
v 119304.394 485131.170 0.524
v 119304.394 485131.170 15.394
v 119304.394 485131.170 15.394
v 119304.394 485131.170 0.524
v 119303.196 485130.622 0.524
v 119303.196 485130.622 15.365
v 119308.808 485114.383 16.497
v 119308.808 485114.383 0.524
v 119308.936 485114.484 0.524
v 119308.936 485114.484 16.450
v 119302.532 485114.429 17.898
v 119302.532 485114.429 0.524
v 119303.830 485111.399 0.524
v 119303.830 485111.399 17.527
v 119304.826 485127.559 15.345
v 119304.826 485127.559 0.524
v 119303.076 485123.287 0.524
v 119303.076 485123.287 15.363
v 119305.994 485130.569 18.619
v 119305.994 485130.569 0.524
v 119304.940 485130.965 0.524
v 119304.940 485130.965 15.406
v 119304.940 485130.965 18.606
v 119306.466 485130.407 18.624
v 119306.466 485130.407 0.524
v 119305.994 485130.569 0.524
v 119305.994 485130.569 18.619
v 119299.407 485121.714 15.326
v 119299.407 485121.714 0.524
v 119299.929 485120.495 0.524
v 119299.929 485120.495 15.346
v 119299.929 485120.495 18.574
v 119299.929 485120.495 15.346
v 119299.929 485120.495 0.524
v 119302.532 485114.429 0.524
v 119302.532 485114.429 17.898
v 119302.532 485114.429 18.617
v 119339.801 485102.082 2.084
v 119339.801 485102.082 0.494
v 119339.764 485102.159 0.494
v 119339.764 485102.159 2.084
v 119339.764 485102.159 2.084
v 119339.764 485102.159 0.494
v 119339.705 485102.220 0.494
v 119339.705 485102.220 2.083
v 119339.705 485102.220 2.083
v 119339.705 485102.220 0.494
v 119339.632 485102.264 0.494
v 119339.632 485102.264 2.083
v 119339.632 485102.264 2.083
v 119339.632 485102.264 0.494
v 119339.545 485102.287 0.494
v 119339.545 485102.287 2.083
v 119336.368 485101.883 2.085
v 119336.368 485101.883 0.494
v 119336.300 485101.845 0.494
v 119336.300 485101.845 2.085
v 119336.300 485101.845 2.085
v 119336.300 485101.845 0.494
v 119336.243 485101.789 0.494
v 119336.243 485101.789 2.086
v 119336.183 485101.644 2.086
v 119336.183 485101.644 0.494
v 119336.184 485101.564 0.494
v 119336.184 485101.564 2.086
v 119336.184 485101.564 2.086
v 119336.184 485101.564 0.494
v 119336.207 485101.486 0.494
v 119336.207 485101.486 2.087
v 119336.243 485101.789 2.086
v 119336.243 485101.789 0.494
v 119336.204 485101.720 0.494
v 119336.204 485101.720 2.086
v 119336.204 485101.720 2.086
v 119336.204 485101.720 0.494
v 119336.183 485101.644 0.494
v 119336.183 485101.644 2.086
v 119337.782 485102.462 2.083
v 119337.782 485102.462 0.494
v 119336.368 485101.883 0.494
v 119336.368 485101.883 2.085
v 119338.689 485096.126 2.107
v 119338.689 485096.126 0.494
v 119338.840 485096.148 0.494
v 119338.840 485096.148 2.107
v 119338.545 485096.185 2.107
v 119338.545 485096.185 0.494
v 119338.689 485096.126 0.494
v 119338.689 485096.126 2.107
v 119338.451 485096.305 2.106
v 119338.451 485096.305 0.494
v 119338.545 485096.185 0.494
v 119338.545 485096.185 2.107
v 119338.840 485096.148 2.107
v 119338.840 485096.148 0.494
v 119340.235 485096.725 0.494
v 119340.235 485096.725 2.105
v 119341.326 485098.441 2.098
v 119341.326 485098.441 0.494
v 119341.266 485098.562 0.494
v 119341.266 485098.562 2.097
v 119341.266 485098.562 2.097
v 119341.266 485098.562 0.494
v 119340.779 485098.914 0.494
v 119340.779 485098.914 2.096
v 119340.235 485096.725 2.105
v 119340.235 485096.725 0.494
v 119341.280 485098.195 0.494
v 119341.280 485098.195 2.099
v 119341.280 485098.195 2.099
v 119341.280 485098.195 0.494
v 119341.329 485098.314 0.494
v 119341.329 485098.314 2.098
v 119339.816 485101.997 2.084
v 119339.816 485101.997 0.494
v 119339.801 485102.082 0.494
v 119339.801 485102.082 2.084
v 119341.329 485098.314 2.098
v 119341.329 485098.314 0.494
v 119341.326 485098.441 0.494
v 119341.326 485098.441 2.098
v 119339.743 485101.586 2.086
v 119339.743 485101.586 0.494
v 119339.816 485101.997 0.494
v 119339.816 485101.997 2.084
v 119340.779 485098.914 2.096
v 119340.779 485098.914 0.494
v 119340.425 485099.264 0.494
v 119340.425 485099.264 2.095
v 119340.425 485099.264 2.095
v 119340.425 485099.264 0.494
v 119340.272 485099.461 0.494
v 119340.272 485099.461 2.094
v 119340.134 485099.670 2.093
v 119340.134 485099.670 0.494
v 119340.017 485099.888 0.494
v 119340.017 485099.888 2.092
v 119340.272 485099.461 2.094
v 119340.272 485099.461 0.494
v 119340.134 485099.670 0.494
v 119340.134 485099.670 2.093
v 119340.017 485099.888 2.092
v 119340.017 485099.888 0.494
v 119339.917 485100.117 0.494
v 119339.917 485100.117 2.091
v 119336.207 485101.486 2.087
v 119336.207 485101.486 0.494
v 119338.451 485096.305 0.494
v 119338.451 485096.305 2.106
v 119339.917 485100.117 2.091
v 119339.917 485100.117 0.494
v 119339.837 485100.353 0.494
v 119339.837 485100.353 2.091
v 119339.777 485100.594 2.090
v 119339.777 485100.594 0.494
v 119339.736 485100.840 0.494
v 119339.736 485100.840 2.089
v 119339.736 485100.840 2.089
v 119339.736 485100.840 0.494
v 119339.718 485101.089 0.494
v 119339.718 485101.089 2.088
v 119339.837 485100.353 2.091
v 119339.837 485100.353 0.494
v 119339.777 485100.594 0.494
v 119339.777 485100.594 2.090
v 119339.718 485101.089 2.088
v 119339.718 485101.089 0.494
v 119339.720 485101.338 0.494
v 119339.720 485101.338 2.087
v 119339.720 485101.338 2.087
v 119339.720 485101.338 0.494
v 119339.743 485101.586 0.494
v 119339.743 485101.586 2.086
v 119339.545 485102.287 2.083
v 119339.545 485102.287 0.494
v 119337.782 485102.462 0.494
v 119337.782 485102.462 2.083
v 119302.962 485134.611 3.220
v 119302.962 485134.611 -0.018
v 119300.209 485133.421 -0.018
v 119300.209 485133.421 3.239
v 119303.915 485132.410 3.204
v 119303.915 485132.410 -0.018
v 119302.962 485134.611 -0.018
v 119302.962 485134.611 3.220
v 119300.209 485133.421 3.239
v 119300.209 485133.421 -0.018
v 119301.162 485131.218 -0.018
v 119301.162 485131.218 3.224
v 119301.162 485131.218 3.224
v 119301.162 485131.218 -0.018
v 119303.915 485132.410 -0.018
v 119303.915 485132.410 3.204
v 119303.830 485111.399 17.709
v 119303.830 485111.399 0.283
v 119300.490 485119.187 0.283
v 119300.490 485119.187 14.809
v 119300.490 485119.187 17.695
v 119293.441 485119.577 14.620
v 119293.441 485119.577 0.283
v 119294.716 485116.474 0.283
v 119294.716 485116.474 14.629
v 119299.293 485121.980 14.799
v 119299.293 485121.980 0.283
v 119293.441 485119.577 0.283
v 119293.441 485119.577 14.620
v 119300.490 485119.187 14.809
v 119300.490 485119.187 0.283
v 119299.293 485121.980 0.283
v 119299.293 485121.980 14.799
v 119294.716 485116.474 17.717
v 119294.716 485116.474 14.629
v 119294.716 485116.474 0.283
v 119297.816 485108.929 0.283
v 119297.816 485108.929 17.730
v 119297.816 485108.929 17.730
v 119297.816 485108.929 0.283
v 119303.830 485111.399 0.283
v 119303.830 485111.399 17.709
f 1943 1944 1945 1946
f 1947 1948 1949 1950
f 1951 1952 1953 1954
f 1955 1956 1957 1958
f 1959 1960 1961 1962
f 1963 1964 1965 1966
f 1967 1968 1969 1970
f 1971 1972 1973 1974
f 1975 1976 1977 1978 1979
f 1980 1981 1982 1983
f 1984 1985 1986 1987 1988 1989
f 1990 1991 1992 1993
f 1994 1995 1996 1997
f 1998 1999 2000 2001
f 2002 2003 2004 2005
f 2006 2007 2008 2009
f 2010 2011 2012 2013
f 2014 2015 2016 2017
f 2018 2019 2020 2021 2022
f 2023 2024 2025 2026
f 2027 2028 2029 2030
f 2031 2032 2033 2034
f 2035 2036 2037 2038
f 2039 2040 2041 2042
f 2043 2044 2045 2046
f 2047 2048 2049 2050
f 2051 2052 2053 2054 2055
f 2056 2057 2058 2059
f 2060 2061 2062 2063
f 2064 2065 2066 2067
f 2068 2069 2070 2071
f 2072 2073 2074 2075
f 2076 2077 2078 2079
f 2080 2081 2082 2083
f 2084 2085 2086 2087
f 2088 2089 2090 2091
f 2092 2093 2094 2095 2096
f 2097 2098 2099 2100 2101 2102
f 2103 2104 2105 2106
f 2107 2108 2109 2110
f 2111 2112 2113 2114
f 2115 2116 2117 2118
f 2119 2120 2121 2122
f 2123 2124 2125 2126
f 2127 2128 2129 2130
f 2131 2132 2133 2134 2135 2136
f 2137 2138 2139 2140
f 2141 2142 2143 2144
f 2145 2146 2147 2148
f 2149 2150 2151 2152 2153 2154
f 2155 2156 2157 2158
f 2159 2160 2161 2162
f 2163 2164 2165 2166
f 2167 2168 2169 2170
f 2171 2172 2173 2174
f 2175 2176 2177 2178
f 2179 2180 2181 2182 2183 2184
f 2185 2186 2187 2188
f 2189 2190 2191 2192
f 2193 2194 2195 2196
f 2197 2198 2199 2200
f 2201 2202 2203 2204
f 2205 2206 2207 2208
f 2209 2210 2211 2212
f 2213 2214 2215 2216
f 2217 2218 2219 2220
f 2221 2222 2223 2224
f 2225 2226 2227 2228 2229
f 2230 2231 2232 2233
f 2234 2235 2236 2237
f 2238 2239 2240 2241 2242 2243
f 2244 2245 2246 2247
f 2248 2249 2250 2251
f 2252 2253 2254 2255
f 2256 2257 2258 2259
f 2260 2261 2262 2263
f 2264 2265 2266 2267
f 2268 2269 2270 2271
f 2272 2273 2274 2275
f 2276 2277 2278 2279
f 2280 2281 2282 2283
f 2284 2285 2286 2287
f 2288 2289 2290 2291
f 2292 2293 2294 2295
f 2296 2297 2298 2299
f 2300 2301 2302 2303
f 2304 2305 2306 2307
f 2308 2309 2310 2311
f 2312 2313 2314 2315
f 2316 2317 2318 2319
f 2320 2321 2322 2323
f 2324 2325 2326 2327
f 2328 2329 2330 2331
f 2332 2333 2334 2335
f 2336 2337 2338 2339
f 2340 2341 2342 2343
f 2344 2345 2346 2347
f 2348 2349 2350 2351
f 2352 2353 2354 2355
f 2356 2357 2358 2359
f 2360 2361 2362 2363
f 2364 2365 2366 2367
f 2368 2369 2370 2371
f 2372 2373 2374 2375
f 2376 2377 2378 2379
f 2380 2381 2382 2383
f 2384 2385 2386 2387
f 2388 2389 2390 2391
f 2392 2393 2394 2395
f 2396 2397 2398 2399
f 2400 2401 2402 2403 2404
f 2405 2406 2407 2408
f 2409 2410 2411 2412
f 2413 2414 2415 2416
f 2417 2418 2419 2420 2421
f 2422 2423 2424 2425
